<?xml version="1.0" encoding="UTF-8"?>
<svg version="1.1" xmlns="http://www.w3.org/2000/svg" width="4500" height="4500">
<path d="M0 0 C0.70537903 -0.00067474 1.41075806 -0.00134949 2.13751221 -0.00204468 C84.71430617 0.12134885 164.33930843 31.51598551 224.7734375 87.68359375 C227.10060845 89.82498215 229.46308615 91.89342629 231.875 93.9375 C235.06778667 96.71241684 237.81100587 99.68997414 240.5390625 102.91796875 C242.52101793 105.20219152 244.58444933 107.3926173 246.66918945 109.58276367 C258.74883766 122.35001365 268.78226347 136.6874434 278.5625 151.25 C284.03018113 149.67650334 288.71748047 147.13426261 293.6875 144.4375 C306.72615457 137.49345328 320.11057211 131.34460134 333.5625 125.25 C334.60390137 124.775625 335.64530273 124.30125 336.71826172 123.8125 C414.0775161 88.68209195 496.77851913 65.07270071 921.5625 71.25 C922.30419434 71.43197937 923.04588867 71.61395874 923.81005859 71.80145264 C946.35036484 77.35883401 968.50758808 84.01659045 990.5625 91.25 C991.81337402 91.65831055 993.06424805 92.06662109 994.35302734 92.48730469 C1038.80710255 107.09988399 1081.47550394 126.35711081 1123.12573242 147.59375 C1124.07295166 148.07328125 1125.0201709 148.5528125 1125.99609375 149.046875 C1126.83197021 149.47323242 1127.66784668 149.89958984 1128.52905273 150.33886719 C1130.49531882 151.38630058 1130.49531882 151.38630058 1132.5625 151.25 C1134.144513 149.05039347 1135.61354405 146.84777538 1137.0625 144.5625 C1155.3811737 116.43238991 1179.17029848 90.78100851 1205.91113281 70.51611328 C1207.47784886 69.31490254 1209.01720901 68.07825658 1210.5546875 66.83984375 C1265.9488496 22.59645454 1338.58077069 0.07126816 1409 0 C1409.70404968 -0.00100708 1410.40809937 -0.00201416 1411.13348389 -0.00305176 C1493.81906751 0.07564131 1572.79747118 31.34203981 1633.5625 87.25 C1635.27010347 88.77165278 1636.97844542 90.29247722 1638.6875 91.8125 C1645.80105474 98.22471836 1652.34815116 104.96891663 1658.5625 112.25 C1659.36300781 113.16136719 1660.16351562 114.07273437 1660.98828125 115.01171875 C1701.25842494 161.21202938 1726.8061678 218.98060137 1736.5625 279.25 C1736.72766113 280.23403809 1736.89282227 281.21807617 1737.06298828 282.23193359 C1742.1878969 314.09964357 1742.05804603 349.45047724 1736.5625 381.25 C1736.39621094 382.27851074 1736.22992187 383.30702148 1736.05859375 384.36669922 C1722.98361624 464.28144604 1679.10740347 540.80203627 1614.22705078 589.97509766 C1612.62212097 591.20433548 1611.04285758 592.46686373 1609.46484375 593.73046875 C1564.79719793 629.25 1564.79719793 629.25 1548.5625 629.25 C1548.76705811 629.76232178 1548.97161621 630.27464355 1549.18237305 630.80249023 C1578.78018509 705.67612315 1595.76075986 786.63559695 1603.5625 879.25 C1603.64081055 880.32012329 1603.64081055 880.32012329 1603.72070312 881.41186523 C1610.14722164 970.44096514 1602.92466754 1060.0079191 1554.5625 1246.25 C1554.32982422 1246.91773438 1554.09714844 1247.58546875 1553.85742188 1248.2734375 C1541.0951253 1284.78879031 1525.33520289 1319.85135154 1508.0625 1354.4375 C1507.67518707 1355.21330414 1507.28787415 1355.98910828 1506.88882446 1356.78842163 C1505.77255093 1359.02058272 1504.65268728 1361.25089807 1503.53125 1363.48046875 C1503.18321823 1364.17544968 1502.83518646 1364.8704306 1502.47660828 1365.58647156 C1500.2408315 1370.01687874 1497.85231008 1374.30649374 1495.16210938 1378.48168945 C1494.34167385 1380.30741546 1494.34167385 1380.30741546 1495.28979492 1382.35522461 C1497.17328068 1385.15931687 1499.58485583 1386.60680609 1502.375 1388.5 C1524.01780893 1403.47749291 1544.67756614 1420.1160371 1564.72021484 1437.15966797 C1568.1949136 1440.10980597 1571.70707795 1443.00668229 1575.25 1445.875 C1579.70153808 1449.49834495 1583.98632455 1453.26963872 1588.23046875 1457.1328125 C1590.32073889 1459.03051169 1592.43236115 1460.89733415 1594.5625 1462.75 C1603.36764251 1470.42808427 1611.9792636 1478.32557375 1620.5625 1486.25 C1621.12868042 1486.77261414 1621.69486084 1487.29522827 1622.27819824 1487.8336792 C1632.66418959 1497.44312419 1642.77456565 1507.30461503 1652.76586914 1517.32299805 C1655.15070255 1519.71326107 1657.54093105 1522.09803758 1659.93164062 1524.48242188 C1661.47688372 1526.02832482 1663.02181709 1527.57453743 1664.56640625 1529.12109375 C1665.26754044 1529.8202037 1665.96867462 1530.51931366 1666.6910553 1531.23960876 C1670.61316533 1535.18021053 1674.35901609 1539.21621171 1677.9705658 1543.44398499 C1679.59956741 1545.29205217 1681.30376333 1547.02565036 1683.0625 1548.75 C1686.05484375 1551.69600215 1688.81574172 1554.77983007 1691.5546875 1557.9609375 C1693.50612787 1560.18573139 1695.50433648 1562.36170501 1697.51708984 1564.53100586 C1702.34554485 1569.73707294 1706.9275513 1575.0681598 1711.3828125 1580.6015625 C1713.54007399 1583.22275119 1715.77561 1585.74154281 1718.0625 1588.25 C1722.76708343 1593.42504177 1727.1686739 1598.81067562 1731.5625 1604.25 C1732.59693444 1605.51621503 1733.63213622 1606.78180343 1734.66796875 1608.046875 C1740.93119942 1615.70502629 1747.09177572 1623.42033252 1753.07666016 1631.29882812 C1754.84068222 1633.61530271 1756.61376629 1635.92472865 1758.38671875 1638.234375 C1765.49132574 1647.50286005 1772.54057791 1656.79108316 1779.23730469 1666.359375 C1780.7482049 1668.51494081 1782.2686979 1670.66359983 1783.7890625 1672.8125 C1809.08773835 1708.65643734 1832.4429648 1745.79717262 1853.5625 1784.25 C1854.57661736 1786.08344705 1855.59093499 1787.91678333 1856.60546875 1789.75 C1869.51602563 1813.15967138 1881.52293421 1836.90164286 1892.5625 1861.25 C1893.39050424 1863.06280338 1894.21850947 1864.87560633 1895.04676819 1866.68829346 C1906.95722486 1892.78712123 1917.63415787 1919.33693571 1927.5625 1946.25 C1927.91411194 1947.1998175 1927.91411194 1947.1998175 1928.27282715 1948.16882324 C1958.97853255 2031.18911847 1978.41022576 2117.99853186 1995.5625 2309.25 C1995.57345703 2310.07316711 1995.58441406 2310.89633423 1995.59570312 2311.7444458 C1996.78915866 2407.57848647 1987.01008711 2502.66402006 1886.5625 2817.25 C1885.73733887 2818.99289307 1885.73733887 2818.99289307 1884.89550781 2820.77099609 C1873.53147456 2844.73112739 1861.49383391 2868.27348961 1848.2734375 2891.26953125 C1846.48608155 2894.38312164 1844.71138477 2897.50371764 1842.9375 2900.625 C1830.54882632 2922.3567781 1817.23213569 2943.37136965 1803.375 2964.1875 C1802.55689346 2965.41755264 1802.55689346 2965.41755264 1801.72225952 2966.67245483 C1791.95181251 2981.34513038 1781.93202147 2995.8339165 1771.4375 3010 C1770.85186279 3010.79237061 1770.26622559 3011.58474121 1769.6628418 3012.40112305 C1764.71170543 3019.08281946 1759.67846612 3025.69361624 1754.5625 3032.25 C1753.92779785 3033.06597656 1753.92779785 3033.06597656 1753.28027344 3033.8984375 C1743.58498258 3046.35663508 1733.68795765 3058.6528561 1723.4453125 3070.66601562 C1720.59865846 3074.00792088 1717.81669148 3077.39417724 1715.0625 3080.8125 C1710.93559794 3085.88607493 1706.56147442 3090.68741142 1702.1171875 3095.48046875 C1700.06136278 3097.70918393 1698.04633043 3099.95767919 1696.0625 3102.25 C1692.36475599 3106.50721355 1688.56157329 3110.66555481 1684.73681641 3114.80859375 C1683.19893369 3116.47450846 1681.66207893 3118.1412371 1680.13105774 3119.8134613 C1669.78159812 3131.11602786 1658.99391993 3141.97435202 1648.14697266 3152.79589844 C1645.66278238 3155.27433685 1643.18318777 3157.75731746 1640.70484352 3160.24160004 C1638.29785632 3162.65309399 1635.88704091 3165.06074575 1633.4765625 3167.46875 C1632.16070663 3168.78764221 1632.16070663 3168.78764221 1630.81826782 3170.13317871 C1626.4183652 3174.51647392 1621.95529646 3178.75434842 1617.24520874 3182.80310059 C1615.30133262 3184.47456823 1613.42332736 3186.20553301 1611.5625 3187.96875 C1610.9025 3188.59136719 1610.2425 3189.21398438 1609.5625 3189.85546875 C1608.9025 3190.48066406 1608.2425 3191.10585937 1607.5625 3191.75 C1602.33001286 3196.7065552 1597.02107938 3201.54312585 1591.5625 3206.25 C1590.9962793 3206.73839355 1590.43005859 3207.22678711 1589.84667969 3207.72998047 C1587.62042959 3209.64455555 1585.38868726 3211.55261293 1583.15478516 3213.45825195 C1579.97948035 3216.16942196 1576.82034615 3218.89606095 1573.6875 3221.65625 C1572.74511475 3222.48056519 1572.74511475 3222.48056519 1571.78369141 3223.3215332 C1570.57790702 3224.37695331 1569.37682377 3225.43777533 1568.18115234 3226.50463867 C1565.35190758 3228.97012339 1563.29674853 3230.71849118 1559.5625 3231.25 C1557.04931641 3230.99543762 1557.04931641 3230.99543762 1554.1640625 3230.45239258 C1553.06520218 3230.250327 1551.96634186 3230.04826141 1550.83418274 3229.84007263 C1549.63077744 3229.61054398 1548.42737213 3229.38101532 1547.1875 3229.14453125 C1545.23090705 3228.78341752 1543.27430974 3228.42232677 1541.31756306 3228.062047 C1539.20384578 3227.67177404 1537.09081365 3227.2779478 1534.97787476 3226.88348389 C1527.36177133 3225.46416879 1519.73803675 3224.08680684 1512.11328125 3222.71484375 C1511.31629633 3222.57136757 1510.51931141 3222.42789139 1509.69817543 3222.28006744 C1432.1134542 3208.34274261 1353.86698174 3197.63270389 787.5625 3156.25 C778.07626015 3119.48898594 779.65210663 3075.49576713 785.5625 3038.25 C785.73942383 3037.12529297 785.91634766 3036.00058594 786.09863281 3034.84179688 C791.74862184 3000.04410973 801.46535219 2966.1493463 816.5625 2934.25 C817.02914062 2933.26306152 817.49578125 2932.27612305 817.9765625 2931.25927734 C824.73475868 2917.10365719 832.23875841 2903.54300639 840.5625 2890.25 C840.0675 2889.755 840.0675 2889.755 839.5625 2889.25 C837.19155519 2889.67991789 834.87501157 2890.17594788 832.53125 2890.7265625 C831.02023776 2891.06937004 829.50908192 2891.41154504 827.99780273 2891.75317383 C827.19462616 2891.93635162 826.39144958 2892.11952942 825.56393433 2892.30825806 C807.00419979 2896.51327752 788.4517899 2899.9376018 769.5625 2902.25 C768.89889465 2902.3325 768.23528931 2902.415 767.55157471 2902.5 C726.12720486 2907.5864287 682.96228601 2907.51616787 641.5625 2902.25 C640.88860229 2902.16514343 640.21470459 2902.08028687 639.52038574 2901.99285889 C619.03350666 2899.39383125 598.89135504 2895.44923456 578.74926758 2890.92675781 C575.69669542 2890.27849841 572.6443683 2889.73788243 569.5625 2889.25 C569.8527002 2889.71446533 570.14290039 2890.17893066 570.44189453 2890.6574707 C608.32353219 2951.65620435 629.13888731 3020.21887221 628.875 3092.1875 C628.87417419 3093.15136627 628.87334839 3094.11523254 628.87249756 3095.10830688 C628.83222607 3115.68894756 627.74066953 3136.050404 623.5625 3156.25 C621.90124084 3156.29305267 621.90124084 3156.29305267 620.2064209 3156.3369751 C526.17954448 3158.78310097 432.25047465 3162.27796904 -80 3219.0625 C-81.21095463 3219.2642452 -81.21095463 3219.2642452 -82.44637299 3219.47006607 C-87.88321886 3220.37648319 -93.31890852 3221.28960197 -98.75390625 3222.20703125 C-99.49116692 3222.33107645 -100.22842758 3222.45512165 -100.98802948 3222.5829258 C-109.30942763 3223.9855785 -117.61304891 3225.45605083 -125.90185547 3227.04052734 C-127.43984016 3227.33167698 -128.9778394 3227.62274983 -130.51585388 3227.91374207 C-133.41642004 3228.46310971 -136.31279407 3229.03000975 -139.207901 3229.6073761 C-140.49530685 3229.85255478 -141.78271271 3230.09773346 -143.10913086 3230.3503418 C-144.23878769 3230.57280075 -145.36844452 3230.7952597 -146.53233337 3231.02445984 C-150.38809817 3231.32379889 -152.12627932 3230.26129223 -155.09399414 3227.97241211 C-155.90018188 3227.25710327 -155.90018188 3227.25710327 -156.72265625 3226.52734375 C-157.63337891 3225.72695679 -157.63337891 3225.72695679 -158.5625 3224.91040039 C-159.201875 3224.34184326 -159.84125 3223.77328613 -160.5 3223.1875 C-164.9134366 3219.30501513 -169.33948184 3215.47708591 -173.9375 3211.8125 C-179.17605197 3207.57624198 -184.07381 3203.01673286 -188.9609375 3198.38500977 C-192.71101952 3194.8337187 -196.53686224 3191.39680977 -200.43530273 3188.00927734 C-203.72860897 3185.11553698 -206.92942714 3182.12583765 -210.125 3179.125 C-210.81271484 3178.48046875 -211.50042969 3177.8359375 -212.20898438 3177.171875 C-217.25763241 3172.41691564 -222.17762256 3167.54882048 -227.05200195 3162.61621094 C-230.46811335 3159.17372654 -233.98834306 3155.93146095 -237.67578125 3152.78515625 C-242.00428295 3149.01331331 -245.92497634 3144.88813461 -249.65234375 3140.52734375 C-253.39157258 3136.23367924 -257.37446522 3132.23519887 -261.4375 3128.25 C-266.07218574 3123.70410135 -270.52555367 3119.09444207 -274.76269531 3114.17431641 C-277.36433674 3111.1850835 -280.09353464 3108.31958663 -282.8125 3105.4375 C-287.49538203 3100.43876768 -291.91282796 3095.31012149 -296.1953125 3089.9609375 C-298.67658833 3086.96092805 -301.28657112 3084.09888193 -303.9375 3081.25 C-309.02137187 3075.77250419 -313.75732594 3070.07388219 -318.4375 3064.25 C-319.43369846 3063.03287315 -320.43117264 3061.81678973 -321.4296875 3060.6015625 C-327.59235225 3053.0886773 -333.61584776 3045.48901492 -339.48901367 3037.74755859 C-342.8600809 3033.30436158 -346.27382021 3028.89893237 -349.72143555 3024.51489258 C-356.43240744 3015.96888211 -362.80180022 3007.24091838 -368.99609375 2998.31494141 C-370.38987711 2996.31822399 -371.80034097 2994.33474867 -373.21875 2992.35546875 C-386.97317252 2973.13405633 -400.03406978 2953.36798515 -412.4375 2933.25 C-413.39390381 2931.7023999 -413.39390381 2931.7023999 -414.36962891 2930.12353516 C-424.48101744 2913.72534646 -434.17988178 2897.14899823 -443.4375 2880.25 C-443.97874512 2879.27047363 -444.51999023 2878.29094727 -445.07763672 2877.28173828 C-462.85142882 2845.08960006 -479.0372185 2812.08374091 -493.4375 2778.25 C-493.76794312 2777.47503174 -494.09838623 2776.70006348 -494.43884277 2775.90161133 C-505.03531219 2751.01184374 -514.69088804 2725.84800845 -523.4375 2700.25 C-523.74343079 2699.35518921 -524.04936157 2698.46037842 -524.36456299 2697.53845215 C-555.74432913 2605.51411956 -574.92502215 2510.16316877 -583.4375 2391.25 C-583.47880035 2390.3798526 -583.52010071 2389.5097052 -583.56265259 2388.6131897 C-584.41392862 2370.34661524 -584.64059703 2352.09625249 -584.625 2333.8125 C-584.62473312 2333.10664639 -584.62446625 2332.40079277 -584.62419128 2331.67354965 C-584.61245215 2306.82306414 -584.18410413 2282.04736568 -582.4375 2257.25 C-582.37433594 2256.34987183 -582.31117188 2255.44974365 -582.24609375 2254.52233887 C-575.60781217 2161.33013961 -557.80470101 2069.0343893 -502.4375 1909.25 C-502.02594666 1908.23510498 -502.02594666 1908.23510498 -501.6060791 1907.19970703 C-494.24742073 1889.06838951 -486.38823175 1871.21839967 -477.99755859 1853.53759766 C-476.50736297 1850.39722609 -475.02843666 1847.25175527 -473.55078125 1844.10546875 C-461.52359615 1818.63565152 -448.59524365 1793.60131908 -434.4375 1769.25 C-433.42873217 1767.50284292 -432.4199677 1765.7556839 -431.41130066 1764.00846863 C-418.78094658 1742.15326501 -405.28779425 1720.95537719 -391.3125 1699.9375 C-390.81297821 1699.18540253 -390.31345642 1698.43330505 -389.79879761 1697.65841675 C-380.30028254 1683.37227676 -370.52563586 1669.2862537 -360.3125 1655.5 C-359.43404419 1654.31144409 -359.43404419 1654.31144409 -358.5378418 1653.09887695 C-353.58670543 1646.41718054 -348.55346612 1639.80638376 -343.4375 1633.25 C-342.80279785 1632.43402344 -342.80279785 1632.43402344 -342.15527344 1631.6015625 C-335.19140932 1622.65317752 -328.07905082 1613.83050821 -320.90527344 1605.04980469 C-319.62253868 1603.47689706 -318.34590587 1601.89901716 -317.0703125 1600.3203125 C-308.50666946 1589.74907549 -299.54197394 1579.51268049 -290.40625 1569.43359375 C-288.60215216 1567.43262015 -286.82742983 1565.4104969 -285.0625 1563.375 C-281.31752797 1559.08156525 -277.47669457 1554.87780205 -273.61230469 1550.69189453 C-272.07424755 1549.02580818 -270.53721497 1547.35891129 -269.00602722 1545.68650818 C-258.65658772 1534.38394316 -247.86890934 1523.52563742 -237.02197266 1512.70410156 C-234.53778238 1510.22566315 -232.05818777 1507.74268254 -229.57984352 1505.25839996 C-227.17285632 1502.84690601 -224.76204091 1500.43925425 -222.3515625 1498.03125 C-221.03570663 1496.71235779 -221.03570663 1496.71235779 -219.69326782 1495.36682129 C-215.29138069 1490.98154906 -210.82574251 1486.7429837 -206.11352539 1482.69244385 C-204.20351123 1481.04862139 -202.36331525 1479.3439054 -200.54296875 1477.6015625 C-199.58342285 1476.68938965 -199.58342285 1476.68938965 -198.60449219 1475.75878906 C-197.95125977 1475.13713867 -197.29802734 1474.51548828 -196.625 1473.875 C-191.27029574 1468.81295674 -185.8424314 1464.01261003 -180.078125 1459.421875 C-177.09654218 1456.96956723 -174.26193205 1454.37909919 -171.4375 1451.75 C-166.85483868 1447.49136524 -162.13804923 1443.47019938 -157.26171875 1439.546875 C-154.77496446 1437.52445243 -152.33419795 1435.45780011 -149.90454102 1433.36743164 C-143.72923889 1428.06335754 -137.36301683 1423.06664721 -130.87207031 1418.1550293 C-126.20293557 1414.61769532 -121.61186264 1411.00216962 -117.0625 1407.3125 C-106.18892352 1398.52172454 -94.82819485 1390.35375232 -83.4375 1382.25 C-85.14607655 1377.63899747 -87.38605308 1373.37004712 -89.6640625 1369.0234375 C-90.53239165 1367.35332461 -91.40012298 1365.6829008 -92.26733398 1364.01220703 C-92.72308807 1363.13485901 -93.17884216 1362.25751099 -93.64840698 1361.35357666 C-114.28061974 1321.54249388 -132.01018258 1280.72583348 -146.4375 1238.25 C-146.66632874 1237.57918396 -146.89515747 1236.90836792 -147.13092041 1236.21722412 C-171.27546849 1165.36958345 -186.11347414 1092.0831155 -192.1875 1017.5 C-192.24675659 1016.77365356 -192.30601318 1016.04730713 -192.36706543 1015.2989502 C-192.76887703 1010.28533955 -193.11953927 1005.26959605 -193.4375 1000.25 C-193.4858902 999.50203156 -193.5342804 998.75406311 -193.58413696 997.98342896 C-194.65047792 980.89850565 -194.63880334 963.79824597 -194.625 946.6875 C-194.62473312 945.94583462 -194.62446625 945.20416924 -194.62419128 944.44002914 C-194.61390797 921.65592129 -194.40100051 898.96276607 -192.4375 876.25 C-192.37433594 875.49632141 -192.31117188 874.74264282 -192.24609375 873.96612549 C-185.20017358 789.93964188 -166.26767049 709.72632433 -138.4375 630.25 C-139.09532471 629.9190332 -139.75314941 629.58806641 -140.4309082 629.24707031 C-168.8218125 614.89730635 -195.61807774 598.22054626 -219 576.50390625 C-221.06594186 574.59357219 -223.16700579 572.7567003 -225.3125 570.9375 C-233.95982474 563.413436 -242.1362773 555.08284375 -249.4375 546.25 C-249.88528809 545.71600586 -250.33307617 545.18201172 -250.79443359 544.63183594 C-263.81435162 529.08107524 -275.17691587 512.7380693 -285.4375 495.25 C-286.06736816 494.18990723 -286.06736816 494.18990723 -286.70996094 493.10839844 C-305.66097761 461.04996509 -317.95290137 424.83439301 -324.4375 388.25 C-324.60040527 387.37633789 -324.76331055 386.50267578 -324.93115234 385.60253906 C-328.73413803 364.98570988 -330.36472378 343.19663199 -329.4375 322.25 C-329.39641113 321.23663574 -329.35532227 320.22327148 -329.31298828 319.17919922 C-325.37333977 229.87630402 -287.77339175 147.31864132 -222.4375 86.25 C-219.74655966 83.92158912 -217.01049659 81.68268409 -214.21875 79.4765625 C-211.75442854 77.50372089 -209.37882653 75.45679941 -207.00952148 73.37182617 C-151.11265443 24.59336741 -73.33986016 0.06436575 0 0 Z M391.5625 1676.25 C390.67304687 1676.67829102 390.67304687 1676.67829102 389.765625 1677.11523438 C372.84607727 1685.27159863 356.36814453 1693.91877298 340.27197266 1703.62402344 C337.69710435 1705.16922283 335.10815926 1706.68671477 332.51171875 1708.1953125 C307.32553318 1722.91230001 283.26906269 1739.94149078 260.5625 1758.25 C259.15097656 1759.38695313 259.15097656 1759.38695313 257.7109375 1760.546875 C247.93332262 1768.49294819 238.28306642 1776.59290724 228.9609375 1785.0703125 C227.3287636 1786.55362363 225.68775082 1788.02725392 224.0390625 1789.4921875 C219.08885641 1793.89406307 214.34621011 1798.42845675 209.69921875 1803.1484375 C207.78010574 1805.03597461 205.81271456 1806.773274 203.75 1808.5 C199.48213623 1812.15451808 195.77000562 1816.26013838 191.99609375 1820.40991211 C189.1497428 1823.53845998 186.26829196 1826.59695489 183.25 1829.5625 C179.4753246 1833.29086037 176.0086135 1837.21844637 172.5625 1841.25 C171.6801452 1842.26862581 170.79729355 1843.28682137 169.9140625 1844.3046875 C117.49804973 1904.86572034 75.43095372 1974.7009546 48.5625 2050.25 C48.22345642 2051.19978729 48.22345642 2051.19978729 47.87756348 2052.16876221 C31.94660258 2096.8818088 21.38920156 2142.96653529 15.81964111 2190.08990479 C15.57425882 2192.15122086 15.31898359 2194.21109792 15.06201172 2196.27099609 C9.90347368 2239.18768537 9.95859882 2285.31981427 15.30926514 2328.21099854 C15.57506719 2330.35118872 15.82938698 2332.49255384 16.08251953 2334.63427734 C23.9898882 2400.76643712 42.30697935 2464.92974753 70.5625 2525.25 C71.20276123 2526.63687012 71.20276123 2526.63687012 71.85595703 2528.05175781 C93.50616534 2574.87932519 121.30895759 2618.78977708 154.17285156 2658.55615234 C156.08512976 2660.88703536 157.94806662 2663.25576944 159.8125 2665.625 C163.18985344 2669.86268979 166.76823352 2673.88648618 170.41796875 2677.890625 C172.28643113 2679.94627396 174.11943736 2682.02489901 175.9375 2684.125 C184.8477643 2694.32065741 194.1831171 2704.03191831 203.77026367 2713.58813477 C205.76142777 2715.57389676 207.74713221 2717.5650074 209.73242188 2719.55664062 C219.28092141 2730.03964403 219.28092141 2730.03964403 230.5625 2738.25 C232.72047748 2738.12452545 232.72047748 2738.12452545 235.18359375 2737.7265625 C236.58834961 2737.52546875 236.58834961 2737.52546875 238.02148438 2737.3203125 C239.49584961 2737.09988281 239.49584961 2737.09988281 241 2736.875 C242.91499196 2736.59380472 244.83035979 2736.3151574 246.74609375 2736.0390625 C248.02311157 2735.84884521 248.02311157 2735.84884521 249.32592773 2735.65478516 C258.02523653 2734.56679738 266.59017402 2734.10777394 275.35546875 2734.15234375 C276.42751053 2734.1537587 277.49955231 2734.15517365 278.6040802 2734.15663147 C281.98608338 2734.16217298 285.36801726 2734.17471413 288.75 2734.1875 C291.06054591 2734.19252257 293.37109287 2734.19708415 295.68164062 2734.20117188 C301.30861689 2734.21212316 306.93555349 2734.22880179 312.5625 2734.25 C312.15411896 2733.77482437 311.74573792 2733.29964874 311.32498169 2732.81007385 C310.78735199 2732.18382614 310.24972229 2731.55757843 309.69580078 2730.91235352 C309.16366974 2730.29280289 308.6315387 2729.67325226 308.08328247 2729.03492737 C306.16388144 2726.78214533 304.29784039 2724.48921527 302.4375 2722.1875 C299.9402541 2719.11492867 297.42298553 2716.07083255 294.80859375 2713.09765625 C287.0871956 2704.30521705 280.08461428 2695.10106976 273.25439453 2685.60205078 C271.66606961 2683.39398119 270.06628119 2681.1946599 268.46484375 2678.99609375 C260.58768379 2668.09926989 253.46524864 2656.78443541 246.5625 2645.25 C246.07313965 2644.43644043 245.5837793 2643.62288086 245.07958984 2642.78466797 C229.930754 2617.44433106 217.17146071 2590.78570337 206.5625 2563.25 C206.12744141 2562.12239258 205.69238281 2560.99478516 205.24414062 2559.83300781 C187.86756386 2514.235924 178.90433532 2467.45138345 172.5625 2419.25 C171.94431396 2419.12995605 171.32612793 2419.00991211 170.68920898 2418.88623047 C146.74895857 2414.16261354 126.06549103 2406.50436365 107.5625 2390.25 C106.53125 2389.46625 105.5 2388.6825 104.4375 2387.875 C84.26802908 2369.45939612 70.80677602 2340.01510651 69.44140625 2312.83984375 C68.19035375 2278.86125775 77.87537469 2248.83764961 101.23046875 2223.65234375 C120.01844635 2204.29789447 146.78250959 2189.99157974 174.20288086 2189.13647461 C175.46495361 2189.14171143 176.72702637 2189.14694824 178.02734375 2189.15234375 C178.70551651 2189.1537587 179.38368927 2189.15517365 180.08241272 2189.15663147 C182.22165578 2189.16217255 184.36078925 2189.17471347 186.5 2189.1875 C187.96158702 2189.19252264 189.42317569 2189.1970842 190.88476562 2189.20117188 C194.44404526 2189.21212255 198.00326191 2189.22934555 201.5625 2189.25 C204.041717 2183.30816736 206.51619673 2177.36465996 208.96484375 2171.41015625 C225.87369311 2130.57242961 246.57129415 2092.07404215 272.5625 2056.25 C273.32941162 2055.19159912 273.32941162 2055.19159912 274.11181641 2054.11181641 C284.13800702 2040.34903573 294.8327004 2027.08401662 306.40625 2014.58984375 C308.32014769 2012.51298738 310.16730911 2010.39822493 312 2008.25 C315.44877121 2004.25406797 319.19959164 2000.58041174 323.00756836 1996.9296875 C324.22891722 1995.73933734 325.40040023 1994.49825906 326.5625 1993.25 C326.5625 1992.59 326.5625 1991.93 326.5625 1991.25 C327.15256836 1990.98662842 327.74263672 1990.72325684 328.35058594 1990.4519043 C330.65822815 1989.19798348 332.12977394 1987.89804739 333.953125 1986.01953125 C334.57590332 1985.38499023 335.19868164 1984.75044922 335.84033203 1984.09667969 C336.49114746 1983.42540039 337.14196289 1982.75412109 337.8125 1982.0625 C342.89931277 1976.89922119 347.99399187 1971.89572678 353.5625 1967.25 C354.47644531 1966.45851563 355.39039063 1965.66703125 356.33203125 1964.8515625 C365.11823591 1957.26360288 374.27803847 1950.2143385 383.5625 1943.25 C384.33432617 1942.66782715 385.10615234 1942.0856543 385.90136719 1941.48583984 C396.83061603 1933.25403221 407.92693773 1925.45162228 419.5625 1918.25 C420.33142578 1917.77353027 421.10035156 1917.29706055 421.89257812 1916.80615234 C500.37548176 1868.43173875 589.2710446 1840.12330276 681.5625 1836.25 C680.68198474 1809.74649059 668.76881474 1788.56908434 649.8125 1770.625 C629.19672424 1752.62960615 599.4017761 1742.10991215 572.3671875 1739.76953125 C571.46806641 1739.6912207 570.56894531 1739.61291016 569.64257812 1739.53222656 C567.87968473 1739.38903125 566.11521298 1739.26378337 564.34960938 1739.15917969 C559.24233186 1738.77053825 556.26764569 1738.10891656 552.5625 1734.25 C550.9666991 1731.05839819 551.18328624 1727.72279968 551.5625 1724.25 C552.875 1721.3125 552.875 1721.3125 554.5625 1719.25 C561.76092528 1716.85052491 569.99959739 1718.34298003 577.375 1719.4375 C578.72851562 1719.6382312 578.72851562 1719.6382312 580.109375 1719.84301758 C611.19399324 1724.67977986 639.00692463 1735.44942668 663.5625 1755.25 C664.42488281 1755.92675781 665.28726563 1756.60351562 666.17578125 1757.30078125 C689.55404718 1776.69269988 699.22342561 1806.25709386 703.5625 1835.25 C708.5125 1835.25 713.4625 1835.25 718.5625 1835.25 C718.86800781 1834.19425781 719.17351563 1833.13851562 719.48828125 1832.05078125 C729.9425527 1797.59347102 752.04440969 1770.09197994 783.75 1753 C798.27271539 1745.46555932 823.74992671 1733.25659437 840.5625 1737.25 C843.38674288 1739.44022918 844.97758603 1741.08017207 846.5625 1744.25 C847.02533444 1751.53964238 847.02533444 1751.53964238 845.49609375 1753.88671875 C842.69569359 1755.8611423 839.66775639 1756.41128171 836.375 1757.125 C834.92234215 1757.46651999 833.47053557 1757.81167787 832.01953125 1758.16015625 C831.27783691 1758.33820801 830.53614258 1758.51625977 829.77197266 1758.69970703 C797.63205672 1766.70449935 768.83178433 1783.41184031 751.10083008 1812.05859375 C746.63692083 1819.53584051 742.41213342 1827.68765203 740.5625 1836.25 C741.84640625 1836.39695312 741.84640625 1836.39695312 743.15625 1836.546875 C746.03596282 1836.88092169 748.91459383 1837.22122779 751.79296875 1837.56640625 C756.04327821 1838.07547517 760.29632827 1838.55424445 764.55078125 1839.02734375 C818.04482727 1845.14680308 870.18457897 1858.67513329 919.5625 1880.25 C920.62549316 1880.71341797 921.68848633 1881.17683594 922.78369141 1881.65429688 C947.73242804 1892.63219276 971.67266878 1905.44705901 994.5625 1920.25 C995.67109375 1920.96414063 996.7796875 1921.67828125 997.921875 1922.4140625 C1000.8288571 1924.32324264 1003.70075261 1926.27367576 1006.5625 1928.25 C1007.17448242 1928.67039551 1007.78646484 1929.09079102 1008.41699219 1929.52392578 C1027.23094059 1942.48190723 1045.14498848 1956.56532972 1062.03198242 1971.95458984 C1063.6040961 1973.38064029 1065.18346972 1974.79878147 1066.77392578 1976.2043457 C1073.28500753 1981.97128405 1079.47792408 1988.01111816 1085.61352539 1994.1706543 C1087.25489796 1995.81741404 1088.90158819 1997.45872095 1090.54882812 1999.09960938 C1096.09686065 2004.64377771 1101.49737716 2010.25606287 1106.5625 2016.25 C1107.53517202 2017.3683076 1108.50909904 2018.48552507 1109.484375 2019.6015625 C1125.4977928 2038.08653153 1140.38972099 2057.63491785 1153.5625 2078.25 C1154.30234131 2079.40508057 1154.30234131 2079.40508057 1155.05712891 2080.58349609 C1162.98965503 2093.03007123 1170.29929794 2105.73550325 1177.22949219 2118.76464844 C1178.40346764 2120.95348912 1179.60301827 2123.12413473 1180.8203125 2125.2890625 C1192.04836133 2145.47691942 1201.0788977 2167.41813766 1208.5625 2189.25 C1209.89087891 2189.22643433 1209.89087891 2189.22643433 1211.24609375 2189.20239258 C1244.49831104 2188.68985515 1244.49831104 2188.68985515 1256.5625 2192.25 C1257.23700195 2192.44867676 1257.91150391 2192.64735352 1258.60644531 2192.85205078 C1288.6708227 2201.96143431 1313.63036596 2221.819879 1328.71484375 2249.41796875 C1334.50818887 2261.02000966 1338.46857151 2273.46866052 1340.5625 2286.25 C1340.69269531 2286.99636719 1340.82289062 2287.74273438 1340.95703125 2288.51171875 C1345.12109248 2317.66014738 1337.20622979 2348.61436754 1320.02636719 2372.39672852 C1311.85596774 2383.18816319 1302.14872437 2393.17811194 1290.5625 2400.25 C1289.51707031 2400.90484375 1288.47164062 2401.5596875 1287.39453125 2402.234375 C1272.11671919 2411.55337946 1255.97682641 2415.66214791 1238.5625 2419.25 C1237.49038641 2426.04341965 1236.47076695 2432.83990736 1235.5546875 2439.65625 C1222.82643213 2532.95251383 1187.23027592 2621.51831891 1129.5625 2696.25 C1129.15499512 2696.78222168 1128.74749023 2697.31444336 1128.32763672 2697.86279297 C1121.0879791 2707.30452444 1113.42011605 2716.31930562 1105.5625 2725.25 C1104.12469488 2726.89556678 1102.68712472 2728.54133896 1101.25 2730.1875 C1100.35456669 2731.20868424 1099.45893451 2732.22969454 1098.5625 2733.25 C1100.87046166 2734.40398083 1102.11209176 2734.35448312 1104.67553711 2734.31591797 C1105.53009995 2734.30628525 1106.38466278 2734.29665253 1107.26512146 2734.28672791 C1108.19727982 2734.27202957 1109.12943817 2734.25733124 1110.08984375 2734.2421875 C1112.08788113 2734.22225003 1114.08592884 2734.20332837 1116.08398438 2734.18530273 C1117.13287842 2734.1748996 1118.18177246 2734.16449646 1119.26245117 2734.15377808 C1159.08059466 2733.79984069 1159.08059466 2733.79984069 1176.63305664 2737.71142578 C1178.66434973 2738.18817073 1178.66434973 2738.18817073 1181.5625 2738.25 C1184.05192745 2736.68981413 1184.05192745 2736.68981413 1186 2734.25 C1188.54323857 2731.39307925 1191.08915049 2728.75120039 1194 2726.27734375 C1199.71689402 2721.34781437 1204.99189341 2715.96980248 1210.31713867 2710.62573242 C1212.12112085 2708.81639067 1213.93038665 2707.01245681 1215.74023438 2705.20898438 C1221.03876942 2699.91350379 1226.28118335 2694.62325381 1231.14135742 2688.91625977 C1233.32984777 2686.35030089 1235.63890704 2683.90520866 1237.9375 2681.4375 C1242.17560701 2676.84440625 1246.21850193 2672.13729778 1250.13671875 2667.265625 C1251.91609865 2665.05357784 1253.70880553 2662.85793161 1255.51953125 2660.671875 C1273.77391635 2638.5653128 1290.74799116 2615.05270555 1305.31982422 2590.35449219 C1306.54811892 2588.27435461 1307.79018464 2586.20300272 1309.03515625 2584.1328125 C1360.66130875 2497.87100469 1390.05656136 2402.45795981 1398.8125 2262.625 C1398.81350708 2261.39444885 1398.81451416 2260.16389771 1398.81555176 2258.89605713 C1398.80362266 2237.22123043 1397.92495776 2215.79500725 1395.5625 2194.25 C1395.48988953 2193.58105713 1395.41727905 2192.91211426 1395.34246826 2192.22290039 C1394.31534912 2182.86118833 1393.02667669 2173.55269833 1391.5625 2164.25 C1391.36849609 2163.00283203 1391.17449219 2161.75566406 1390.97460938 2160.47070312 C1381.80553865 2102.92386874 1363.70867175 2048.16362039 1339.5625 1995.25 C1338.85794962 1993.68495133 1338.153509 1992.11985325 1337.44921875 1990.5546875 C1332.09770786 1978.79392 1325.86364786 1967.52324005 1319.5625 1956.25 C1319.07233398 1955.36763672 1318.58216797 1954.48527344 1318.07714844 1953.57617188 C1303.18983594 1926.82879972 1286.20999701 1901.51475193 1267.5625 1877.25 C1267.0974707 1876.64462402 1266.63244141 1876.03924805 1266.15332031 1875.41552734 C1260.35624131 1867.89636295 1254.36529412 1860.57094717 1248.1953125 1853.35546875 C1245.67911783 1850.40579651 1243.24357031 1847.39529582 1240.8125 1844.375 C1237.82926481 1840.70700085 1234.75070896 1837.303592 1231.34230042 1834.03074646 C1229.57488801 1832.26239459 1227.95160252 1830.42805954 1226.32788086 1828.52758789 C1222.69314562 1824.3467897 1218.86353274 1820.40620211 1214.94140625 1816.49609375 C1214.23781479 1815.79154556 1213.53422333 1815.08699738 1212.80931091 1814.36109924 C1211.33235352 1812.88346633 1209.85415258 1811.40707543 1208.37475586 1809.93188477 C1206.13084915 1807.69333519 1203.89233296 1805.44949527 1201.65429688 1803.20507812 C1200.20865382 1801.76009596 1198.76270055 1800.31542408 1197.31640625 1798.87109375 C1196.6578212 1798.21048447 1195.99923615 1797.54987518 1195.32069397 1796.86924744 C1191.43627458 1793.00403521 1187.44314592 1789.31914357 1183.29205322 1785.74143982 C1181.0727696 1783.82769243 1178.91277953 1781.85218199 1176.75 1779.875 C1172.48504692 1776.03071755 1168.1138915 1772.35473095 1163.6484375 1768.74609375 C1161.41310183 1766.93801844 1159.19061795 1765.11887237 1156.9765625 1763.28515625 C1146.78785651 1754.8756566 1136.289416 1746.95897182 1125.5625 1739.25 C1124.3556958 1738.38157471 1124.3556958 1738.38157471 1123.12451172 1737.49560547 C1047.64139435 1683.39358316 961.59427824 1645.4379172 721.5625 1605.25 C720.4070166 1605.22808594 719.2515332 1605.20617188 718.06103516 1605.18359375 C633.11576661 1603.83757074 548.78064116 1617.21839579 391.5625 1676.25 Z " fill="#FEDBA9" transform="translate(1537.4375,442.75)"/>
<path d="M0 0 C1.35351562 0.2007312 1.35351562 0.2007312 2.734375 0.40551758 C33.75689417 5.23261726 61.72504802 15.95670375 86.1875 35.8125 C87.12335937 36.56273438 88.05921875 37.31296875 89.0234375 38.0859375 C112.39916997 57.92212688 123.61337711 86.93912642 126.1875 116.8125 C131.1375 116.8125 136.0875 116.8125 141.1875 116.8125 C141.373125 115.4925 141.55875 114.1725 141.75 112.8125 C145.30868369 95.26621234 156.17315638 76.83568163 168.1875 63.8125 C168.68878418 63.26883789 169.19006836 62.72517578 169.70654297 62.16503906 C192.11299711 38.14424847 225.37565685 18.84703855 258.9375 17.3125 C262.18383307 17.46708729 263.2631601 17.85663506 266.1875 19.5625 C269.8031536 23.6301103 270.41947534 26.48392617 270.6484375 31.8125 C269.94943283 34.84546942 268.63899884 35.92460941 266.1875 37.8125 C263.72589557 38.61858877 261.45529242 39.2290041 258.9375 39.75 C257.49394968 40.08230079 256.0512575 40.41834795 254.609375 40.7578125 C253.87396484 40.92958008 253.13855469 41.10134766 252.38085938 41.27832031 C220.66574631 49.00234829 192.81991318 65.35166817 174.9375 93.1875 C170.48935052 100.65822569 166.93803401 108.56089798 164.1875 116.8125 C171.94861349 117.79693865 179.70917301 118.76889349 187.484375 119.63671875 C240.86890279 125.724772 292.91708629 139.28460684 342.1875 160.8125 C343.25049316 161.27591797 344.31348633 161.73933594 345.40869141 162.21679688 C370.35742804 173.19469276 394.29766878 186.00955901 417.1875 200.8125 C418.29609375 201.52664062 419.4046875 202.24078125 420.546875 202.9765625 C423.4538571 204.88574264 426.32575261 206.83617576 429.1875 208.8125 C429.79948242 209.23289551 430.41146484 209.65329102 431.04199219 210.08642578 C449.85658547 223.04485138 467.77196726 237.12852542 484.65893555 252.51904297 C486.22429587 253.93885516 487.79704826 255.35062001 489.38134766 256.74926758 C496.05143146 262.65247009 502.38195603 268.85310754 508.66577148 275.16040039 C510.37957233 276.8795867 512.09869082 278.59332583 513.81835938 280.30664062 C519.4883438 285.97283844 525.01593678 291.68122973 530.1875 297.8125 C531.16007656 298.93089062 532.13400487 300.04810737 533.109375 301.1640625 C549.1227928 319.64903153 564.01472099 339.19741785 577.1875 359.8125 C577.92734131 360.96758057 577.92734131 360.96758057 578.68212891 362.14599609 C586.61465503 374.59257123 593.92429794 387.29800325 600.85449219 400.32714844 C602.02846764 402.51598912 603.22801827 404.68663473 604.4453125 406.8515625 C609.67636447 416.25835231 614.05510809 426.02578294 618.375 435.875 C618.81655426 436.87838409 618.81655426 436.87838409 619.26702881 437.90203857 C622.55995085 445.40750681 625.69957516 452.95975908 628.61328125 460.62109375 C628.87320358 461.29745377 629.13312592 461.97381378 629.40092468 462.67066956 C630.47224941 465.5369815 631.1875 467.72482998 631.1875 470.8125 C632.1775 470.4825 633.1675 470.1525 634.1875 469.8125 C669.20592318 467.75972806 699.99328597 475.30625503 726.71264648 498.6809082 C747.1057994 517.00786586 759.75987974 540.78630595 764.1875 567.8125 C764.31769531 568.55886719 764.44789062 569.30523438 764.58203125 570.07421875 C768.74437111 599.21059779 760.82990323 630.11081784 743.70214844 653.90844727 C735.30425161 665.0266214 725.14175218 675.57892098 713.1875 682.8125 C712.14335937 683.46605469 711.09921875 684.11960937 710.0234375 684.79296875 C695.84147268 693.44616415 678.01785075 700.8125 661.1875 700.8125 C661.07535156 702.45992187 661.07535156 702.45992187 660.9609375 704.140625 C657.94751035 743.08020485 649.12958584 781.72220606 637.1875 818.8125 C636.82930176 819.92963379 636.47110352 821.04676758 636.10205078 822.19775391 C617.90638747 878.31701023 589.18598073 931.1620624 553.1875 977.8125 C552.77999512 978.34472168 552.37249023 978.87694336 551.95263672 979.42529297 C545.23455721 988.18679884 538.26927211 996.74057138 530.82470703 1004.89916992 C529.11373351 1006.82540889 529.11373351 1006.82540889 527.59326172 1009.1730957 C524.22506424 1013.79681367 521.48266173 1016.18217248 515.72764587 1017.2219696 C512.83305539 1017.61595085 509.93897304 1017.91962636 507.02850342 1018.16955566 C502.98973158 1018.52399462 498.96898586 1019.02529643 494.9453125 1019.51953125 C494.12584137 1019.61805389 493.30637024 1019.71657654 492.46206665 1019.81808472 C431.53478363 1027.45235213 373.98990163 1059.15188874 328.1875 1098.8125 C327.40503906 1099.48152344 326.62257813 1100.15054688 325.81640625 1100.83984375 C313.81509223 1111.34359346 301.93290811 1122.70249545 292.13671875 1135.30859375 C289.99365657 1138.06150529 287.72004465 1140.67432837 285.4375 1143.3125 C282.33330138 1146.95885386 279.64654005 1150.58655668 277.12109375 1154.65625 C276.58258789 1155.50638672 276.04408203 1156.35652344 275.48925781 1157.23242188 C274.44181748 1158.90655215 273.42461655 1160.60013304 272.44433594 1162.31445312 C268.59749393 1168.42015272 264.80783135 1170.2753997 257.87915039 1172.01953125 C256.66090576 1172.28121094 255.44266113 1172.54289062 254.1875 1172.8125 C252.90286865 1173.10511719 251.6182373 1173.39773438 250.29467773 1173.69921875 C246.06386997 1174.63976748 241.81648515 1175.48408166 237.5625 1176.3125 C236.79783417 1176.46279663 236.03316833 1176.61309326 235.24533081 1176.76794434 C220.95197341 1179.5693068 206.65596931 1182.08849538 192.1875 1183.8125 C190.95338379 1183.96203125 189.71926758 1184.1115625 188.44775391 1184.265625 C147.52373174 1188.98625801 105.06571236 1189.01232225 64.1875 1183.8125 C63.51360229 1183.72764343 62.83970459 1183.64278687 62.14538574 1183.55535889 C45.68889172 1181.46763813 29.41763887 1178.60825709 13.1875 1175.1875 C12.49195007 1175.04147339 11.79640015 1174.89544678 11.07977295 1174.74499512 C6.76590411 1173.83151837 2.4738649 1172.84685385 -1.8125 1171.8125 C-3.1571936 1171.5182312 -3.1571936 1171.5182312 -4.52905273 1171.21801758 C-10.91738636 1169.54718165 -13.4568957 1166.22795101 -16.875 1160.75 C-17.90403793 1159.20035172 -18.93528122 1157.65216559 -19.96875 1156.10546875 C-20.45730469 1155.36087402 -20.94585938 1154.6162793 -21.44921875 1153.84912109 C-24.28665364 1149.6102454 -27.54197322 1145.71965604 -30.8125 1141.8125 C-32.07320312 1140.29269531 -32.07320312 1140.29269531 -33.359375 1138.7421875 C-46.08548681 1123.48588417 -59.49710388 1108.2795907 -75.12890625 1095.9375 C-77.93916568 1093.71219996 -80.65189444 1091.39338871 -83.375 1089.0625 C-116.73224736 1061.32919009 -156.47651281 1041.49004393 -197.8125 1028.8125 C-198.63089355 1028.56129395 -199.44928711 1028.31008789 -200.29248047 1028.05126953 C-217.64542295 1022.80790822 -235.09283827 1019.59301094 -253.14453125 1017.93896484 C-254.19898438 1017.83406738 -255.2534375 1017.72916992 -256.33984375 1017.62109375 C-257.74351196 1017.49432251 -257.74351196 1017.49432251 -259.17553711 1017.36499023 C-265.09811035 1016.12410668 -268.65966606 1012.16370957 -272.5625 1007.8125 C-273.09053223 1007.23072998 -273.61856445 1006.64895996 -274.16259766 1006.04956055 C-278.90400954 1000.78715387 -283.42318696 995.37229652 -287.8125 989.8125 C-288.32006836 989.1721582 -288.82763672 988.53181641 -289.35058594 987.87207031 C-313.62578601 957.19150513 -334.18349878 924.73649117 -351.8125 889.8125 C-352.31426758 888.81976074 -352.81603516 887.82702148 -353.33300781 886.80419922 C-380.43972781 832.77379496 -405.95006995 762.30486826 -404.8125 700.8125 C-405.69035156 700.79123047 -405.69035156 700.79123047 -406.5859375 700.76953125 C-431.6427588 699.37748562 -454.98299422 686.91291818 -472.8125 669.8125 C-473.658125 669.008125 -474.50375 668.20375 -475.375 667.375 C-476.179375 666.529375 -476.98375 665.68375 -477.8125 664.8125 C-478.47765625 664.13058594 -479.1428125 663.44867187 -479.828125 662.74609375 C-500.83792677 640.48570854 -509.62887617 610.4350914 -509.05859375 580.37890625 C-507.93366856 547.78965571 -493.02937383 519.98758686 -469.625 497.75 C-450.6579211 480.94006461 -424.88566406 469.60887691 -399.34765625 469.71484375 C-398.33039711 469.71696617 -398.33039711 469.71696617 -397.29258728 469.71913147 C-395.15334422 469.72467255 -393.01421075 469.73721347 -390.875 469.75 C-389.41341298 469.75502264 -387.95182431 469.7595842 -386.49023438 469.76367188 C-382.93095474 469.77462255 -379.37173809 469.79184555 -375.8125 469.8125 C-375.54211914 469.1004541 -375.27173828 468.3884082 -374.99316406 467.65478516 C-356.15881764 418.29553612 -331.79517373 371.97603268 -299.8125 329.8125 C-299.39838867 329.26094238 -298.98427734 328.70938477 -298.55761719 328.14111328 C-290.1845931 316.99122111 -281.2355886 306.38279348 -271.8515625 296.0703125 C-270.01132789 294.03265808 -268.22069442 291.96243613 -266.4375 289.875 C-261.83841581 284.58820228 -256.79724137 279.73107224 -251.8125 274.8125 C-248.97244394 271.98177088 -246.1449886 269.13897879 -243.32421875 266.2890625 C-230.71232041 253.5689216 -230.71232041 253.5689216 -223.8125 247.8125 C-222.89855469 247.02101563 -221.98460937 246.22953125 -221.04296875 245.4140625 C-212.25676409 237.82610288 -203.09696153 230.7768385 -193.8125 223.8125 C-193.04067383 223.23032715 -192.26884766 222.6481543 -191.47363281 222.04833984 C-180.54438397 213.81653221 -169.44806227 206.01412228 -157.8125 198.8125 C-156.65911133 198.09779541 -156.65911133 198.09779541 -155.48242188 197.36865234 C-80.67872062 151.26198433 14.8622459 114.32222234 104.1875 117.8125 C99.91943595 90.8137615 90.60686828 66.36256873 67.95703125 49.3203125 C47.00440674 34.30363169 20.74635766 24.42621292 -4.97265625 22.3671875 C-5.86726563 22.29338867 -6.761875 22.21958984 -7.68359375 22.14355469 C-9.4333103 22.00959598 -11.18484577 21.89706944 -12.9375 21.80957031 C-18.8544189 21.38118538 -21.66335237 20.09929708 -25.8125 15.8125 C-27.40939041 12.61871918 -27.18598957 9.28728685 -26.8125 5.8125 C-22.18453779 -4.83181308 -9.41066996 -1.39655647 0 0 Z " fill="#F9AB78" transform="translate(2114.8125,2161.1875)"/>
<path d="M0 0 C0.65887207 0.52609863 1.31774414 1.05219727 1.99658203 1.59423828 C10.98688835 8.86705114 19.17984772 16.98309239 27.375 25.125 C27.88592194 25.63047363 28.39684387 26.13594727 28.92324829 26.65673828 C35.75308913 33.43225287 42.02641521 40.4424871 48 48 C48.92895378 49.13448254 49.85959994 50.26758453 50.79296875 51.3984375 C83.00748649 91.44323769 104.73040923 138.91553582 116.47705078 188.78564453 C116.9297226 190.70242017 117.39890163 192.61528328 117.87109375 194.52734375 C122.3391014 213.6263402 124.09951654 233.78779186 124.23828125 253.3671875 C124.24798447 254.51279144 124.25768768 255.65839539 124.26768494 256.8387146 C124.29247208 260.51751248 124.3051909 264.19612713 124.3125 267.875 C124.31511841 269.12921753 124.31773682 270.38343506 124.32043457 271.67565918 C124.32464835 290.49139892 123.58232088 308.50270471 120 327 C119.66090795 328.87620269 119.32234656 330.75250139 118.984375 332.62890625 C118.08459252 337.4435318 117.08368603 342.22365918 116 347 C115.72937744 348.23854736 115.45875488 349.47709473 115.17993164 350.75317383 C112.87867745 361.08788207 109.91012337 371.06453816 106.4375 381.0625 C106.17744171 381.81702454 105.91738342 382.57154907 105.64944458 383.34893799 C100.93068601 396.98242062 95.45938424 410.09060654 89 423 C88.56365234 423.88751953 88.12730469 424.77503906 87.67773438 425.68945312 C78.33352536 444.6132068 67.31981254 462.60818844 54 479 C53.02546875 480.24330078 53.02546875 480.24330078 52.03125 481.51171875 C50.05001219 484.03292506 48.03229884 486.51978101 46 489 C45.19949219 489.98742188 44.39898438 490.97484375 43.57421875 491.9921875 C37.25371377 499.65138257 30.43729365 506.7718768 23.4375 513.8125 C22.57552002 514.68366455 21.71354004 515.5548291 20.82543945 516.45239258 C14.85836465 522.39122756 8.57929026 527.75463537 2 533 C0.79161629 534.00070944 -0.41450717 535.004162 -1.6171875 536.01171875 C-16.55320695 548.3556671 -32.84231717 559.00679594 -50 568 C-50.96317139 568.50539307 -50.96317139 568.50539307 -51.94580078 569.02099609 C-55.92251097 571.08991342 -59.93007726 573.08489744 -63.97119141 575.02490234 C-65.30212401 575.66458283 -66.63005993 576.31054415 -67.95458984 576.96337891 C-90.38244666 587.9569889 -115.55379017 595.19813376 -140 600 C-141.03560059 600.20882812 -142.07120117 600.41765625 -143.13818359 600.6328125 C-178.01858342 607.32408969 -217.20635858 606.988369 -252 600 C-252.99902344 599.81276367 -253.99804688 599.62552734 -255.02734375 599.43261719 C-325.91564022 586.08920898 -395.99203767 544.71679187 -440 487 C-440.7940625 486.03449219 -441.588125 485.06898438 -442.40625 484.07421875 C-455.79641084 467.74243201 -467.28628888 449.73422054 -477 431 C-477.3496582 430.33097656 -477.69931641 429.66195313 -478.05957031 428.97265625 C-480.46029076 424.35571308 -482.75110336 419.69245337 -485 415 C-485.31646484 414.35256836 -485.63292969 413.70513672 -485.95898438 413.03808594 C-490.87441444 402.91309765 -494.69282941 392.47607091 -498.25 381.8125 C-498.66233887 380.57806152 -499.07467773 379.34362305 -499.49951172 378.07177734 C-502.32141255 369.45038378 -504.74524021 360.78310489 -507 352 C-507.24153809 351.07791748 -507.48307617 350.15583496 -507.73193359 349.20581055 C-511.18613251 335.90649299 -513.4488801 322.64528388 -515 309 C-515.17159621 307.61995012 -515.34323 306.23990491 -515.51489258 304.85986328 C-516.98455625 292.59688084 -517.36045552 280.4684875 -517.3125 268.125 C-517.31067719 267.14510101 -517.30885437 266.16520203 -517.30697632 265.15560913 C-517.0183837 172.54746128 -479.74348065 85.76134559 -415 20 C-410.79143814 15.86006932 -406.42629943 11.90467706 -402 8 C-401.23768066 7.3205835 -401.23768066 7.3205835 -400.45996094 6.62744141 C-326.06835614 -59.38501965 -220.07797577 -85.23833082 0 0 Z " fill="#E8F2D5" transform="translate(2439,1383)"/>
<path d="M0 0 C0.91120605 0.73621582 0.91120605 0.73621582 1.84082031 1.48730469 C36.32572821 29.68306484 59.12072835 69.82284997 63.80371094 114.37280273 C67.37434494 162.16334068 53.74590598 206.29971973 22.52246094 242.72363281 C15.93370367 250.29104588 8.99202811 256.89576354 1 263 C0.07832031 263.73734375 -0.84335938 264.4746875 -1.79296875 265.234375 C-9.72114761 271.43996709 -18.10990639 276.33921675 -27 281 C-28.15886719 281.61875 -29.31773437 282.2375 -30.51171875 282.875 C-62.05457325 298.69941077 -100.60524802 303.25001411 -135 296 C-135.80501953 295.83371094 -136.61003906 295.66742187 -137.43945312 295.49609375 C-181.1443184 286.21181867 -219.1700402 259.56203333 -243.546875 222.16796875 C-245.8412768 218.52178512 -247.9610362 214.79419463 -250 211 C-250.33837891 210.37254883 -250.67675781 209.74509766 -251.02539062 209.09863281 C-271.19024114 170.90879642 -275.35938591 124.22956294 -262.625 83 C-248.85727744 40.00833806 -219.35836693 4.37062338 -179.41601562 -16.77294922 C-122.28878804 -45.78683825 -50.4222641 -40.87730876 0 0 Z " fill="#E8F2D5" transform="translate(3083,594)"/>
<path d="M0 0 C0.66676758 0.13390137 1.33353516 0.26780273 2.02050781 0.40576172 C44.21281644 8.95825671 81.98829225 35.99365765 105.74609375 71.50390625 C130.11325275 108.84290065 139.2288339 154.22610989 130.390625 198.1484375 C121.755785 236.43815338 100.67433084 272.28848977 69 296 C68.01515625 296.7734375 67.0303125 297.546875 66.015625 298.34375 C30.99735945 325.20340786 -14.59760587 335.00762287 -57.921875 329.46582031 C-73.64454527 327.08646951 -88.62597672 322.76022092 -103 316 C-103.65726074 315.70399902 -104.31452148 315.40799805 -104.99169922 315.10302734 C-121.88419762 307.48597143 -136.34933868 296.42070412 -150 284 C-150.74507812 283.32710937 -151.49015625 282.65421875 -152.2578125 281.9609375 C-158.57142516 275.95405906 -163.82505442 268.98535278 -169 262 C-169.64654541 261.12794922 -169.64654541 261.12794922 -170.30615234 260.23828125 C-191.03781638 231.81905754 -200.19207978 198.01756738 -200.3125 163.1875 C-200.31511841 162.46000549 -200.31773682 161.73251099 -200.32043457 160.98297119 C-200.32519718 148.58351851 -199.06648754 137.04322918 -196 125 C-195.69402294 123.6646537 -195.39051764 122.32873788 -195.08984375 120.9921875 C-185.10881253 79.5989931 -156.58993736 43.27902957 -120.62890625 21.125 C-100.22183993 8.95764187 -78.41611184 1.6726569 -55 -2 C-53.44345703 -2.28037109 -53.44345703 -2.28037109 -51.85546875 -2.56640625 C-34.67795278 -4.49822415 -16.87737249 -3.66327476 0 0 Z " fill="#E8F2D5" transform="translate(1539,562)"/>
<path d="M0 0 C30.793125 -0.061875 61.58625 -0.12375 93.3125 -0.1875 C107.85372925 -0.22846802 107.85372925 -0.22846802 122.6887207 -0.27026367 C134.59997559 -0.28381348 134.59997559 -0.28381348 140.19035339 -0.28633118 C144.06373841 -0.28910661 147.93699791 -0.30027038 151.81034851 -0.31672668 C156.7736512 -0.3375296 161.73677523 -0.34343237 166.70011747 -0.33921683 C168.50752689 -0.3400964 170.31494351 -0.34591032 172.12231505 -0.35764539 C204.1911606 -0.55594342 233.36923941 7.33272701 257.1875 29.6875 C273.47331981 46.65298484 279.94973846 68.89424617 281 92 C281.061875 93.2065625 281.061875 93.2065625 281.125 94.4375 C281.69614385 116.14096623 275.10328984 137.44550865 261 154 C260.34 154.886875 259.68 155.77375 259 156.6875 C256.31155581 159.7960136 253.34572664 162.60195455 250 165 C249.34 165 248.68 165 248 165 C248 165.66 248 166.32 248 167 C248.78375 167.185625 249.5675 167.37125 250.375 167.5625 C266.88658027 174.11019562 278.72612767 188.82118337 285.71484375 204.625 C295.39430224 230.04461135 293.2621252 262.06250404 283 287 C278.80053705 296.27051255 273.70928827 304.31854955 267 312 C266.47148438 312.67160156 265.94296875 313.34320313 265.3984375 314.03515625 C248.87751533 334.50319529 221.55974921 344.66873231 196.18198299 347.7871846 C192.67676084 348.12905952 189.19222002 348.13427062 185.67297363 348.12025452 C184.47727249 348.12153854 184.47727249 348.12153854 183.25741577 348.12284851 C180.59932157 348.12449317 177.94129149 348.1189973 175.28320312 348.11352539 C173.33984123 348.11321883 171.39647922 348.11335293 169.45311737 348.11389065 C164.26148033 348.11411587 159.06986645 348.1083312 153.87823486 348.10128021 C149.00183033 348.09557405 144.12543136 348.09531648 139.24902344 348.09460449 C124.9993459 348.08936272 110.74967266 348.07540152 96.5 348.0625 C48.7325 348.0315625 48.7325 348.0315625 0 348 C0 233.16 0 118.32 0 0 Z M99 74 C99 93.8 99 113.6 99 134 C113.2621875 134.12375 113.2621875 134.12375 127.8125 134.25 C132.2826062 134.30462402 132.2826062 134.30462402 136.84301758 134.36035156 C139.2351815 134.37204648 141.62735345 134.3822364 144.01953125 134.390625 C145.23717163 134.41108887 146.45481201 134.43155273 147.70935059 134.45263672 C157.15913174 134.45645443 165.78968903 133.24213895 173 126.6875 C179.91017952 118.96727551 180.38773619 109.75963375 180.2109375 99.80078125 C179.79345184 92.27830818 178.07014938 86.02237149 172.8046875 80.46875 C166.23810393 75.12451748 158.34174575 73.86812945 150.08642578 73.88647461 C148.92989502 73.88659546 147.77336426 73.88671631 146.58178711 73.88684082 C145.38175049 73.89195679 144.18171387 73.89707275 142.9453125 73.90234375 C141.27359985 73.90385437 141.27359985 73.90385437 139.56811523 73.90539551 C135.42039963 73.91061223 131.27269874 73.92457347 127.125 73.9375 C113.203125 73.9684375 113.203125 73.9684375 99 74 Z M99 207 C99 229.11 99 251.22 99 274 C114.46875 274.0928125 114.46875 274.0928125 130.25 274.1875 C133.48200195 274.21481201 136.71400391 274.24212402 140.04394531 274.27026367 C142.63866809 274.27903497 145.23339503 274.28667738 147.828125 274.29296875 C148.4851239 274.30080887 149.1421228 274.30864899 149.81903076 274.31672668 C162.0943816 274.4556307 174.56199228 273.74176125 184 265 C190.66342702 257.35665725 191.32049599 246.09596461 190.80859375 236.359375 C189.46869419 225.97817121 186.50202625 219.45996445 178.4375 212.6953125 C171.45824949 207.84115429 162.95409655 206.86948144 154.62744141 206.88647461 C153.36939697 206.88659546 152.11135254 206.88671631 150.81518555 206.88684082 C149.50718994 206.89195679 148.19919434 206.89707275 146.8515625 206.90234375 C145.03241333 206.90385437 145.03241333 206.90385437 143.17651367 206.90539551 C138.65933279 206.91061556 134.14216541 206.92457682 129.625 206.9375 C114.465625 206.9684375 114.465625 206.9684375 99 207 Z " fill="#FAAB78" transform="translate(765,3786)"/>
<path d="M0 0 C185.00710227 0 185.00710227 0 203.75 5.6875 C204.60795166 5.94241211 205.46590332 6.19732422 206.34985352 6.45996094 C233.86951496 14.98553015 256.72484338 32.64021156 270.6875 58 C287.41226848 89.87878179 289.03130433 133.02151404 278.8125 167.1875 C270.33549559 193.15973735 254.98879541 213.28837928 232 228 C229.99856177 229.33117346 227.99837155 230.66422722 226 232 C226.47719482 232.97420898 226.95438965 233.94841797 227.44604492 234.95214844 C235.85861669 252.13724633 244.22692127 269.33191491 252.22412109 286.71508789 C256.31758303 295.59027585 260.54303365 304.39612894 264.8125 313.1875 C265.45284258 314.50730331 266.09314275 315.82712719 266.73339844 317.14697266 C267.65060954 319.03734425 268.56789868 320.92767786 269.48535156 322.81793213 C274.56184702 333.27720209 274.56184702 333.27720209 276.9375 338.25 C277.26145752 338.91668701 277.58541504 339.58337402 277.91918945 340.27026367 C279.24436154 343.06198467 280 344.86342708 280 348 C246.67 348 213.34 348 179 348 C169.71464096 329.42928192 169.71464096 329.42928192 166.73828125 323.328125 C166.38520905 322.60525299 166.03213684 321.88238098 165.66836548 321.13760376 C164.54835574 318.84240912 163.43011613 316.54636105 162.3125 314.25 C161.92426056 313.45273499 161.53602112 312.65546997 161.13601685 311.83404541 C154.89930527 299.01641353 148.81700746 286.13711623 142.859375 273.1875 C139.82371687 266.59180555 136.70625971 260.03588093 133.53686523 253.50341797 C131 248.2170234 131 248.2170234 131 246 C120.44 246 109.88 246 99 246 C99 279.66 99 313.32 99 348 C66.33 348 33.66 348 0 348 C0 233.16 0 118.32 0 0 Z M99 82 C99 109.06 99 136.12 99 164 C105.765 164.061875 112.53 164.12375 119.5 164.1875 C122.64885742 164.22846802 122.64885742 164.22846802 125.86132812 164.27026367 C142.49092707 164.39763883 160.94935183 163.89953899 174.0625 152.15234375 C181.76945608 142.76912473 183.86636742 129.79222324 183 118 C181.68465475 108.29096853 179.55929521 98.92029576 171.9609375 92.1953125 C156.14575752 80.96262283 137.65539715 81.71162832 119.125 81.875 C112.48375 81.91625 105.8425 81.9575 99 82 Z " fill="#FAAB78" transform="translate(1725,3786)"/>
<path d="M0 0 C184.00253585 0 184.00253585 0 202.75 5.6875 C203.60722656 5.94168701 204.46445313 6.19587402 205.34765625 6.45776367 C231.92666423 14.68002901 256.09557522 32.06431931 269.35571289 56.92138672 C278.13113917 74.27886462 283.07885145 93.54323828 283.203125 113.0234375 C283.21013931 113.76282059 283.21715363 114.50220367 283.22438049 115.26399231 C283.24177663 117.63439093 283.24823174 120.00453991 283.25 122.375 C283.25067474 123.18401764 283.25134949 123.99303528 283.25204468 124.8265686 C283.2365591 136.49183915 282.88904546 147.64185756 280 159 C279.83371094 159.69464355 279.66742187 160.38928711 279.49609375 161.10498047 C271.93071261 192.27014777 252.9123122 214.38115612 226 231 C228.34912002 239.11265868 232.01393665 246.49345959 235.74737549 254.03405762 C237.68286528 257.944847 239.59906147 261.86506548 241.515625 265.78515625 C241.90082306 266.57227997 242.28602112 267.35940369 242.68289185 268.17037964 C246.09247856 275.15381476 249.37945307 282.18869403 252.625 289.25 C257.86066966 300.6357403 263.27937443 311.92377282 268.80126953 323.17285156 C269.39747707 324.39387233 269.99366918 325.61490063 270.58984375 326.8359375 C271.10409912 327.88313965 271.61835449 328.9303418 272.14819336 330.00927734 C274.90233482 335.94457021 277.42252138 341.98588323 280 348 C246.34 348 212.68 348 178 348 C173.05232486 338.10464972 168.11941909 328.21286934 163.3125 318.25 C163.01763702 317.63948792 162.72277405 317.02897583 162.41897583 316.39996338 C157.46070635 306.12691624 152.62838122 295.79890723 147.85400391 285.43896484 C145.05171022 279.37177933 142.2105937 273.32679519 139.296875 267.3125 C138.99302383 266.68497833 138.68917267 266.05745667 138.37611389 265.41091919 C136.91061242 262.38781968 135.43902619 259.36793496 133.96069336 256.35107422 C133.44128174 255.2838916 132.92187012 254.21670898 132.38671875 253.1171875 C131.92483154 252.17472168 131.46294434 251.23225586 130.98706055 250.26123047 C130 248 130 248 130 246 C119.77 246 109.54 246 99 246 C99 279.66 99 313.32 99 348 C66.33 348 33.66 348 0 348 C0 233.16 0 118.32 0 0 Z M99 82 C99 109.06 99 136.12 99 164 C105.765 164.061875 112.53 164.12375 119.5 164.1875 C122.64885742 164.22846802 122.64885742 164.22846802 125.86132812 164.27026367 C142.64961914 164.39746614 160.41419846 163.82366958 173.46875 151.78515625 C182.00280482 141.83601581 182.88712278 128.51674803 182 116 C180.58650201 106.82330603 177.84053726 97.80144539 170.4375 91.75 C149.54049009 77.68846062 122.74950643 82 99 82 Z " fill="#FAAB78" transform="translate(3183,3786)"/>
<path d="M0 0 C32.67 0 65.34 0 99 0 C99 42.24 99 84.48 99 128 C135.3 128 171.6 128 209 128 C209 85.76 209 43.52 209 0 C241.67 0 274.34 0 308 0 C308 114.84 308 229.68 308 348 C275.33 348 242.66 348 209 348 C209 304.11 209 260.22 209 215 C172.7 215 136.4 215 99 215 C99 258.89 99 302.78 99 348 C66.33 348 33.66 348 0 348 C0 233.16 0 118.32 0 0 Z " fill="#FAAB78" transform="translate(2460,3786)"/>
<path d="M0 0 C31.68 0 63.36 0 96 0 C99.07161468 7.37187524 102.09194855 14.71038355 104.90625 22.17578125 C105.26334549 23.11785934 105.62044098 24.05993744 105.98835754 25.03056335 C106.75785875 27.06115456 107.52649686 29.09207302 108.29434204 31.12329102 C110.4044027 36.70482793 112.52106846 42.28386122 114.63671875 47.86328125 C115.07775436 49.02691193 115.51878998 50.1905426 115.97319031 51.38943481 C120.29937889 62.79977255 124.65395114 74.1991972 129.01171875 85.59750366 C137.16873847 106.93408868 145.28718562 128.2850273 153.38140869 149.64550781 C160.12498154 167.43997913 166.89439565 185.22437994 173.6875 203 C182.29463815 225.52307026 190.87142259 248.05750787 199.42987061 270.59912109 C202.3508629 278.29214915 205.27458488 285.98413694 208.19921875 293.67578125 C209.48827622 297.06634957 210.77731132 300.45692638 212.06634521 303.84750366 C212.88268119 305.99453886 213.69912414 308.14153338 214.51568604 310.28848267 C216.68999555 316.0054867 218.8616143 321.72349621 221.02935791 327.44299316 C221.97403392 329.93159636 222.9230201 332.41852227 223.87255859 334.90527344 C224.42952233 336.3716839 224.9863361 337.83815133 225.54296875 339.3046875 C225.79589188 339.96348907 226.048815 340.62229065 226.30940247 341.30105591 C228 345.77250617 228 345.77250617 228 348 C194.34 348 160.68 348 126 348 C117.375 324.5 117.375 324.5 114.69287109 317.18945312 C113.96977027 315.22003604 113.24662829 313.25063405 112.5234375 311.28125 C112.16548096 310.30510742 111.80752441 309.32896484 111.4387207 308.32324219 C108.3323074 299.86655176 105.16358778 291.43623407 102 283 C66.36 282.67 30.72 282.34 -6 282 C-6.33 283.65 -6.66 285.3 -7 287 C-7.42198311 288.31298485 -7.87649706 289.6159778 -8.36352539 290.90625 C-8.63793961 291.6389209 -8.91235382 292.3715918 -9.19508362 293.12646484 C-9.64185707 294.30136475 -9.64185707 294.30136475 -10.09765625 295.5 C-10.41020859 296.33096191 -10.72276093 297.16192383 -11.04478455 298.01806641 C-12.04709505 300.68008232 -13.05474241 303.34004208 -14.0625 306 C-14.71323485 307.72643279 -15.36362842 309.45299426 -16.01367188 311.1796875 C-20.64405766 323.46524827 -25.326041 335.73085763 -30 348 C-63.66 348 -97.32 348 -132 348 C-128.62494586 336.74981955 -128.62494586 336.74981955 -127.20092773 333.02075195 C-126.87812332 332.17025269 -126.55531891 331.31975342 -126.22273254 330.44348145 C-125.70835884 329.10440735 -125.70835884 329.10440735 -125.18359375 327.73828125 C-124.81542038 326.77136353 -124.44724701 325.8044458 -124.06791687 324.80822754 C-122.86118056 321.64167498 -121.64939428 318.4770817 -120.4375 315.3125 C-119.58093344 313.06806084 -118.72465574 310.82351142 -117.86865234 308.57885742 C-115.25062349 301.71737758 -112.62572387 294.85853801 -110 288 C-109.22830153 285.98309256 -108.4566523 283.96616627 -107.68505859 281.94921875 C-104.38766263 273.33082501 -101.0873498 264.71355318 -97.78427124 256.09733582 C-92.4068121 242.06941792 -87.04507135 228.03552414 -81.6875 214 C-81.24923889 212.8518985 -80.81097778 211.703797 -80.35943604 210.52090454 C-78.13059545 204.68195925 -75.90192452 198.84294922 -73.67333984 193.00390625 C-69.71970858 182.64537432 -65.76454201 172.2874286 -61.80947876 161.92944336 C-59.62292177 156.2029867 -57.43646605 150.47649138 -55.25 144.75 C-54.37500048 142.45833315 -53.50000048 140.16666648 -52.625 137.875 C-52.191875 136.740625 -51.75875 135.60625 -51.3125 134.4375 C-50 131 -48.6875 127.5625 -47.375 124.125 C-46.94194046 122.9907962 -46.50888092 121.85659241 -46.06269836 120.6880188 C-45.1870378 118.39462256 -44.31137658 116.10122656 -43.43571472 113.80783081 C-41.25831614 108.10512867 -39.08092852 102.40242235 -36.90356445 96.69970703 C-32.8458479 86.07221126 -28.7880279 75.44475501 -24.72982788 64.81744385 C-22.83725254 59.86130579 -20.94475041 54.90513979 -19.05224609 49.94897461 C-18.16018622 47.6128629 -17.2680976 45.27676218 -16.37597656 42.94067383 C-15.12948155 39.67662397 -13.88309093 36.41253426 -12.63671875 33.1484375 C-12.28538376 32.2285202 -11.93404877 31.30860291 -11.57206726 30.36080933 C-7.70880565 20.24278259 -3.85560374 10.12095982 0 0 Z M47 110 C43.97122772 119.17155513 40.94544479 128.34408988 37.92323875 137.51781082 C36.51907841 141.77975439 35.11397711 146.04138241 33.70654297 150.30224609 C32.34253294 154.43177407 30.98123256 158.56218702 29.62163162 162.69316864 C29.10838406 164.25111975 28.59424008 165.80877592 28.07908249 167.3660965 C24.1692419 179.18857873 20.58038291 191.0653903 17 203 C37.46 203 57.92 203 79 203 C75.18956283 190.29854278 71.32650788 177.66119078 67.1640625 165.078125 C66.63432127 163.47010773 66.10481588 161.86201275 65.57553101 160.25384521 C64.20685559 156.09735411 62.83506176 151.9418993 61.46252441 147.78668213 C60.05248824 143.51598447 58.64552987 139.24427308 57.23828125 134.97265625 C54.49513065 126.64746491 51.74867156 118.32337015 49 110 C48.34 110 47.68 110 47 110 Z " fill="#FAAB78" transform="translate(2927,3786)"/>
<path d="M0 0 C31.68 0 63.36 0 96 0 C105.17154763 22.92886908 105.17154763 22.92886908 108.41796875 31.61328125 C108.79319672 32.6111264 109.16842468 33.60897156 109.55502319 34.63705444 C110.35385048 36.76157854 111.151835 38.8864197 111.94900513 41.01156616 C114.13009047 46.82476617 116.31889538 52.63505782 118.5078125 58.4453125 C118.96025833 59.64647202 119.41270416 60.84763153 119.87886047 62.08518982 C124.73509155 74.96726911 129.64531389 87.8285897 134.5625 100.6875 C136.32173391 105.28901689 138.08084875 109.89057928 139.83984375 114.4921875 C140.27126175 115.62074158 140.70267975 116.74929565 141.14717102 117.91204834 C145.65457755 129.70657805 150.14185546 141.50873068 154.625 153.3125 C155.01408539 154.33682129 155.40317078 155.36114258 155.80404663 156.41650391 C158.92574633 164.63507255 162.04628811 172.8540807 165.16674805 181.07312012 C167.90227537 188.27812489 170.63828304 195.48294701 173.375 202.6875 C173.76383362 203.71114655 174.15266724 204.73479309 174.55328369 205.78945923 C181.28756209 223.51568431 188.04822233 241.2317724 194.81634521 258.94509888 C202.19121415 278.24713816 209.54078047 297.55869135 216.87304688 316.87695312 C217.43264099 318.35086517 217.43264099 318.35086517 218.00354004 319.85455322 C218.7167573 321.73342671 219.42958243 323.61244911 220.14196777 325.49163818 C221.62539707 329.40106049 223.1145815 333.3076139 224.63671875 337.20214844 C225.32701172 338.96993652 225.32701172 338.96993652 226.03125 340.7734375 C226.41861328 341.75489746 226.80597656 342.73635742 227.20507812 343.74755859 C228 346 228 346 228 348 C194.34 348 160.68 348 126 348 C122.41125 338.409375 118.8225 328.81875 115.125 318.9375 C113.99465332 315.92101318 112.86430664 312.90452637 111.69970703 309.79663086 C110.80219521 307.3944483 109.90488355 304.99219095 109.0078125 302.58984375 C108.77641571 301.97355606 108.54501892 301.35726837 108.30661011 300.7223053 C107.61739613 298.88605191 106.93193811 297.04839015 106.24658203 295.21069336 C105.86019562 294.17810898 105.4738092 293.1455246 105.07571411 292.08164978 C103.91778693 288.76448028 102.96522199 285.37827698 102 282 C66.36 282 30.72 282 -6 282 C-6.99 285.3 -7.98 288.6 -9 292 C-9.6903807 293.99296603 -10.40183125 295.97890692 -11.14477539 297.95288086 C-11.53850845 299.00354233 -11.93224152 300.0542038 -12.33790588 301.13670349 C-12.96148232 302.78413292 -12.96148232 302.78413292 -13.59765625 304.46484375 C-14.03258896 305.61996964 -14.46752167 306.77509552 -14.91563416 307.96522522 C-15.82920483 310.38866383 -16.7444786 312.81146103 -17.66137695 315.23364258 C-19.06673019 318.94868248 -20.46434183 322.66657256 -21.86132812 326.38476562 C-22.75214181 328.74496622 -23.64340203 331.10499835 -24.53515625 333.46484375 C-24.9528981 334.57729965 -25.37063995 335.68975555 -25.80104065 336.83592224 C-26.19162155 337.86451859 -26.58220245 338.89311493 -26.98461914 339.95288086 C-27.32642715 340.85759628 -27.66823517 341.76231171 -28.020401 342.69444275 C-29 345 -29 345 -31 348 C-32.82345009 348.36914349 -32.82345009 348.36914349 -35.07485962 348.36076355 C-36.35372795 348.36694954 -36.35372795 348.36694954 -37.65843201 348.3732605 C-38.59566605 348.36247467 -39.53290009 348.35168884 -40.49853516 348.34057617 C-41.97663918 348.34123329 -41.97663918 348.34123329 -43.48460388 348.34190369 C-46.75295592 348.33980789 -50.0207997 348.31643935 -53.2890625 348.29296875 C-55.55064616 348.28737562 -57.81223344 348.28310419 -60.07382202 348.28010559 C-66.03501366 348.26863461 -71.99598706 348.23914796 -77.95709229 348.20599365 C-84.03646899 348.17534133 -90.11588085 348.16161061 -96.1953125 348.14648438 C-108.13030438 348.11428049 -120.06513406 348.06305691 -132 348 C-131.42992997 344.89188584 -130.73294885 342.00076093 -129.61157227 339.04736328 C-129.32864822 338.29656494 -129.04572418 337.5457666 -128.75422668 336.7722168 C-128.29000557 335.55852417 -128.29000557 335.55852417 -127.81640625 334.3203125 C-127.32662544 333.02613403 -127.32662544 333.02613403 -126.82695007 331.70581055 C-125.74266971 328.84405546 -124.65266571 325.98451776 -123.5625 323.125 C-122.79173209 321.09498806 -122.02122906 319.06487553 -121.25097656 317.03466797 C-114.44662788 299.11523567 -107.58725143 281.21673268 -100.72265625 263.3203125 C-95.69737604 250.2187175 -90.6913563 237.10978958 -85.6875 224 C-84.80110773 221.67789677 -83.9147145 219.35579391 -83.02832031 217.03369141 C-81.24323511 212.35713135 -79.45826211 207.68052849 -77.67333984 203.00390625 C-72.84731193 190.35969112 -68.01913721 177.71629555 -63.19134521 165.07275391 C-61.88145613 161.6422578 -60.57158163 158.21175612 -59.26171875 154.78125 C-58.829198 153.64848633 -58.39667725 152.51572266 -57.9510498 151.34863281 C-55.2954317 144.39340727 -52.64032825 137.43798547 -49.9855957 130.48242188 C-41.2080516 107.48471303 -32.4271408 84.48830793 -23.625 61.5 C-23.29384186 60.63487793 -22.96268372 59.76975586 -22.62149048 58.87841797 C-15.1046118 39.24318368 -7.54750488 19.62351269 0 0 Z M47 109 C42.4841855 122.80026391 37.97127453 136.60147345 33.46244812 150.40402222 C31.28782261 157.06062527 29.11099623 163.71650013 26.93153381 170.371521 C25.71490137 174.08846578 24.50068062 177.8061948 23.28720093 181.52416992 C22.72136695 183.25611818 22.15449488 184.98772764 21.58657837 186.71899414 C20.80370964 189.10605938 20.02444298 191.49427048 19.24609375 193.8828125 C18.90047897 194.93222519 18.90047897 194.93222519 18.54788208 196.00283813 C17.38837011 199.43078799 17.38837011 199.43078799 17 203 C37.46 203 57.92 203 79 203 C72.0599549 180.98330521 65.07633425 158.98140636 57.95358276 137.02307129 C57.19176676 134.67097888 56.43259776 132.31802752 55.67605591 129.9642334 C54.6103159 126.65083103 53.5349603 123.34070372 52.45703125 120.03125 C51.97656342 118.52785065 51.97656342 118.52785065 51.48638916 116.99407959 C51.18770935 116.08402161 50.88902954 115.17396362 50.58129883 114.23632812 C50.32294754 113.43843872 50.06459625 112.64054932 49.79841614 111.81848145 C49.14623888 109.80679411 49.14623888 109.80679411 47 109 Z " fill="#FAAB78" transform="translate(1470,3786)"/>
<path d="M0 0 C79.86 0 159.72 0 242 0 C242 28.71 242 57.42 242 87 C194.81 87 147.62 87 99 87 C99 102.51 99 118.02 99 134 C132.99 134 166.98 134 202 134 C202 160.4 202 186.8 202 214 C168.01 214 134.02 214 99 214 C99 229.51 99 245.02 99 261 C146.19 261 193.38 261 242 261 C242 289.71 242 318.42 242 348 C162.14 348 82.28 348 0 348 C0 233.16 0 118.32 0 0 Z " fill="#FAAB78" transform="translate(1083,3786)"/>
<path d="M0 0 C79.53 0 159.06 0 241 0 C241 28.71 241 57.42 241 87 C194.14 87 147.28 87 99 87 C99 102.51 99 118.02 99 134 C132.66 134 166.32 134 201 134 C201 160.4 201 186.8 201 214 C167.34 214 133.68 214 99 214 C99 229.51 99 245.02 99 261 C145.86 261 192.72 261 241 261 C241 289.71 241 318.42 241 348 C161.47 348 81.94 348 0 348 C0 233.16 0 118.32 0 0 Z " fill="#FAAB78" transform="translate(3494,3786)"/>
<path d="M0 0 C21.01402501 -0.38824988 42.2617839 1.47595087 62.7578125 6.125 C63.51497559 6.29338379 64.27213867 6.46176758 65.05224609 6.63525391 C97.78667721 14.15386471 97.78667721 14.15386471 105.7578125 22.125 C105.85299053 24.89438966 105.88335515 27.63877159 105.87133789 30.40844727 C105.87148392 31.27666107 105.87162994 32.14487488 105.8717804 33.03939819 C105.87108096 35.92342586 105.86328713 38.8073898 105.85546875 41.69140625 C105.85360468 43.68537867 105.85218073 45.67935155 105.85118103 47.67332458 C105.84735498 52.93245702 105.83752395 58.19156203 105.82647705 63.45068359 C105.8162648 68.81282175 105.81168381 74.17496431 105.80664062 79.53710938 C105.79590176 90.06641833 105.7788243 100.59570689 105.7578125 111.125 C101.03602227 109.61051046 96.76508994 107.67156271 92.3828125 105.375 C64.96149943 91.44134167 27.58515081 81.51713521 -2.6875 91.23046875 C-9.03545462 93.76497152 -14.49175358 96.20761014 -18.1171875 102.25 C-19.86407834 106.89173851 -19.37658656 111.37470392 -18.2421875 116.125 C-9.68692196 133.91995232 23.0713611 142.12843106 39.62304688 149.38037109 C71.50317683 163.36463591 104.27973125 179.42674133 118.7578125 213.125 C128.61455307 239.85130967 129.71379691 274.81542196 118 301.23046875 C106.43276238 325.92078826 87.16587222 343.44573915 61.7578125 353.125 C5.37711659 373.35863888 -67.90865879 367.31953771 -122.2421875 343.125 C-125.2121875 341.64 -125.2121875 341.64 -128.2421875 340.125 C-128.2421875 309.435 -128.2421875 278.745 -128.2421875 247.125 C-121.9721875 250.095 -115.7021875 253.065 -109.2421875 256.125 C-81.13730818 268.80950306 -51.30456246 276.07885934 -20.4296875 276.4375 C-19.40343262 276.45538574 -18.37717773 276.47327148 -17.31982422 276.49169922 C-7.47301789 276.48060869 2.64615753 275.03974841 10.7578125 269.125 C14.4163891 264.88875341 16.01267199 260.7217145 15.7578125 255.125 C14.36333894 247.85646083 10.93428547 242.71323724 5.2265625 238.0625 C-7.52555346 229.74006643 -21.48833403 223.58733196 -35.2421875 217.125 C-59.19409735 205.85538273 -80.8951008 194.53360861 -100.2421875 176.125 C-100.850625 175.59132813 -101.4590625 175.05765625 -102.0859375 174.5078125 C-118.19490333 159.79007554 -126.21236936 136.01759026 -127.36865234 114.80493164 C-128.2932831 86.62725093 -121.43882519 61.37956869 -102.2421875 40.125 C-101.10330078 38.86236328 -101.10330078 38.86236328 -99.94140625 37.57421875 C-73.95116007 10.22278128 -36.41767443 1.40405492 0 0 Z " fill="#FAAB78" transform="translate(2307.2421875,3777.875)"/>
<path d="M0 0 C0.70410004 0.00248749 1.40820007 0.00497498 2.13363647 0.00753784 C29.73021552 0.15818914 56.13439464 7.86927963 77.25 26.3125 C77.92160156 26.84101562 78.59320312 27.36953125 79.28515625 27.9140625 C93.03854973 39.01521111 104.17763583 57.64610842 106.25 75.3125 C107.58394021 97.31549269 103.3378806 117.92557053 88.34375 134.96313477 C86.04167648 137.47902935 83.65828672 139.89749561 81.25 142.3125 C80.48042969 143.10527344 79.71085937 143.89804688 78.91796875 144.71484375 C64.70588485 158.49112269 45.43305299 166.4577494 26.25 170.3125 C25.74732627 202.8354901 29.17180482 233.28281095 39.25 264.3125 C39.55421875 265.25512695 39.8584375 266.19775391 40.171875 267.16894531 C48.77838693 293.38051502 61.95723289 316.53891626 81.25 336.3125 C81.91257812 337.03695313 82.57515625 337.76140625 83.2578125 338.5078125 C97.74865067 353.96874862 120.41169204 365.20852171 141.59130859 366.51928711 C145.33425515 366.61701086 149.06831533 366.64149317 152.8125 366.625 C153.8078627 366.62176727 153.8078627 366.62176727 154.82333374 366.61846924 C172.80503348 366.52479904 188.42920851 363.16809925 204.98828125 356.15234375 C208.41156977 354.88117444 211.68223162 354.74474118 215.25 355.3125 C220.8242291 358.20681126 224.90871147 362.45429722 227.25 368.3125 C228.0825108 375.9190197 228.48014448 383.28039572 223.83203125 389.69921875 C213.71053911 400.0206416 197.77406609 402.7913788 184.25 406.3125 C183.57517578 406.49619141 182.90035156 406.67988281 182.20507812 406.86914062 C153.92508298 414.38054674 121.17079811 409.3188114 95.25 396.3125 C94.5796875 395.97879395 93.909375 395.64508789 93.21875 395.30126953 C75.40284613 386.25413085 58.78230862 372.91508467 46.25 357.3125 C45.14978516 355.96865234 45.14978516 355.96865234 44.02734375 354.59765625 C23.35453264 328.61740394 10.73572521 299.55473513 0.25 268.3125 C-1.29031271 272.33367034 -2.78438338 276.34306936 -4.08203125 280.44921875 C-11.09679797 302.28449433 -21.36998934 323.66639715 -34.75 342.3125 C-35.50667969 343.39015625 -36.26335938 344.4678125 -37.04296875 345.578125 C-42.0131312 352.43958821 -47.51436478 358.73917064 -53.36035156 364.85546875 C-54.7073958 366.26782996 -56.03760172 367.6961914 -57.3671875 369.125 C-78.30990127 390.99988204 -105.1769782 403.25897341 -134.75 408.3125 C-135.84570312 408.50199219 -136.94140625 408.69148438 -138.0703125 408.88671875 C-163.35138538 411.81202336 -199.88397595 409.30563109 -220.77734375 392.94140625 C-227.03390183 386.24501983 -227.29117699 379.98068715 -227.08984375 371.02734375 C-226.6294035 365.99425547 -225.35466417 362.8445261 -221.75 359.3125 C-217.32624566 355.64530222 -213.42772622 354.86775441 -207.75 355.3125 C-204.64395597 356.21210768 -201.68162386 357.40920794 -198.6875 358.625 C-190.77248037 361.69418334 -183.14865903 363.92693442 -174.75 365.3125 C-173.24759766 365.58900391 -173.24759766 365.58900391 -171.71484375 365.87109375 C-165.83136032 366.52610225 -159.97775471 366.49688178 -154.0625 366.5 C-152.85916016 366.51224609 -151.65582031 366.52449219 -150.41601562 366.53710938 C-122.95864197 366.58161079 -99.13882275 354.69075274 -79.6875 335.6875 C-47.92178539 303.44767025 -32.94710174 257.33374383 -27.75 213.3125 C-27.63962402 212.38356934 -27.52924805 211.45463867 -27.41552734 210.49755859 C-25.88404523 197.13869332 -25.2284284 183.74544701 -24.75 170.3125 C-25.58660156 170.16554688 -26.42320312 170.01859375 -27.28515625 169.8671875 C-46.39880715 166.18415842 -62.98109553 157.94485409 -77.75 145.3125 C-78.64912109 144.62994141 -78.64912109 144.62994141 -79.56640625 143.93359375 C-92.87755369 133.58734226 -103.57671219 114.87295314 -105.75 98.3125 C-107.53314672 74.50917348 -102.72255779 54.78268523 -87.37109375 36.2734375 C-74.13735306 21.32384668 -56.30126188 10.23779558 -37.1875 4.5 C-36.53998779 4.3050293 -35.89247559 4.11005859 -35.2253418 3.90917969 C-23.62960434 0.66517666 -11.991171 -0.06787087 0 0 Z " fill="#F9AB78" transform="translate(2242.75,1397.6875)"/>
<path d="M0 0 C93.06 0 186.12 0 282 0 C282 47.25869222 272.87135285 85.03632319 239 119 C223.0249241 134.77754792 204.07062296 144.86306636 183 152 C182.23921143 152.26578857 181.47842285 152.53157715 180.69458008 152.80541992 C147.60775057 164.20383798 109.47791299 159.0568737 78.34790039 144.29174805 C44.20729249 127.39891441 19.24768233 97.72866839 7 62 C6.62101562 61.03191406 6.24203125 60.06382812 5.8515625 59.06640625 C-1.27036947 40.19060911 0 19.85558844 0 0 Z " fill="#FEDBA8" transform="translate(2102,3055)"/>
<path d="M0 0 C1.53234146 1.32009146 3.05343135 2.65336582 4.5625 4 C5.7690625 4.99386719 5.7690625 4.99386719 7 6.0078125 C27.54978445 23.41091121 40.10606952 49.30678876 42.5625 76 C44.34440041 106.140067 35.69286564 133.71455612 15.63842773 156.58276367 C-2.88011217 177.15276834 -28.15306373 190.39081147 -55.94628906 192.15966797 C-85.92687463 193.5041639 -112.77404732 184.53860173 -135.5625 164.625 C-156.65238685 145.07013656 -169.30715691 119.03959027 -170.72265625 90.26171875 C-171.56740147 60.96920132 -161.48722492 35.05292731 -142.4375 13 C-141.47070312 11.87851563 -141.47070312 11.87851563 -140.484375 10.734375 C-105.03282854 -27.183366 -40.80698034 -31.99420524 0 0 Z " fill="#FAAB78" transform="translate(2669.4375,1157)"/>
<path d="M0 0 C0.93714844 0.76054688 1.87429688 1.52109375 2.83984375 2.3046875 C3.70480469 3.00335937 4.56976562 3.70203125 5.4609375 4.421875 C24.718977 20.82575888 36.16687167 44.56481202 39.83984375 69.3046875 C41.50816141 101.29088702 36.00797114 130.03331735 14.34863281 154.49707031 C-1.2589785 171.58547966 -20.63689177 183.00666193 -43.16015625 188.3046875 C-44.08570313 188.53027344 -45.01125 188.75585938 -45.96484375 188.98828125 C-72.91579114 194.52353248 -101.38218367 188.15163059 -124.2421875 173.328125 C-148.63409504 156.41379018 -164.70609253 132.77602173 -170.90625 103.8203125 C-175.66250788 75.34836876 -169.93192923 46.09560998 -153.22265625 22.4296875 C-134.77788719 -1.58806247 -109.78547531 -18.27711118 -79.40966797 -22.45214844 C-50.99152867 -25.52404628 -22.51596495 -17.57487934 0 0 Z " fill="#FAAB78" transform="translate(1946.16015625,1158.6953125)"/>
<path d="M0 0 C21.08052373 17.84934771 31.8642506 46.42489421 34.59375 73.30859375 C34.72403969 75.39045663 34.8252324 77.47423183 34.90625 79.55859375 C34.93348145 80.21746582 34.96071289 80.87633789 34.98876953 81.55517578 C36.09809869 112.46987695 29.4894221 142.97213616 9.90625 167.55859375 C9.35324219 168.27660156 8.80023437 168.99460937 8.23046875 169.734375 C1.82345466 177.60934458 -6.75624526 183.63000944 -16.09375 187.55859375 C-16.70734375 187.85636719 -17.3209375 188.15414062 -17.953125 188.4609375 C-23.27556698 190.69925128 -28.4631905 190.84097787 -34.15625 190.87109375 C-34.91212402 190.87657227 -35.66799805 190.88205078 -36.44677734 190.88769531 C-51.34528697 190.69972195 -64.04611909 183.69356373 -74.4140625 173.37109375 C-88.79529177 158.27709218 -97.81140934 139.900526 -102.09375 119.55859375 C-102.27478271 118.70297852 -102.45581543 117.84736328 -102.64233398 116.96582031 C-104.30645995 108.14252725 -104.44986062 99.43662996 -104.40625 90.49609375 C-104.40442719 89.7230188 -104.40260437 88.94994385 -104.40072632 88.15344238 C-104.30500066 64.04554434 -99.72561785 43.85564457 -88.09375 22.55859375 C-87.56136719 21.56988281 -87.02898437 20.58117188 -86.48046875 19.5625 C-78.14501944 5.31157053 -64.08180547 -7.44342318 -48 -11.98828125 C-30.3678088 -16.17953981 -14.04281128 -11.08176395 0 0 Z " fill="#E8F2D5" transform="translate(2027.09375,2693.44140625)"/>
<path d="M0 0 C22.87489759 17.98398323 33.90537805 44.9709231 37.53125 73.26318359 C38.24588206 79.74689142 38.28118947 86.23297465 38.25390625 92.75 C38.25216904 93.76157166 38.25216904 93.76157166 38.25039673 94.7935791 C38.21594992 104.96155387 37.5881406 114.46957547 34.94140625 124.3125 C34.71324219 125.28058594 34.48507813 126.24867188 34.25 127.24609375 C29.90393817 144.75451427 22.08639843 160.95079639 9.94140625 174.3125 C9.36777344 174.96734375 8.79414063 175.6221875 8.203125 176.296875 C0.76015302 184.32604763 -8.6769253 189.18285603 -19.05859375 192.3125 C-19.95964844 192.60060547 -19.95964844 192.60060547 -20.87890625 192.89453125 C-34.00386182 195.41132381 -47.27788661 193.00192672 -58.68359375 186.1875 C-74.62146316 175.24611795 -84.99805363 161.09363964 -92.05859375 143.3125 C-92.46851562 142.28431152 -92.46851562 142.28431152 -92.88671875 141.23535156 C-105.49022531 108.76051448 -105.12346939 69.27881169 -91.05859375 37.3125 C-86.29764011 26.89068457 -80.84936405 17.76692851 -73.05859375 9.3125 C-72.48625 8.66023438 -71.91390625 8.00796875 -71.32421875 7.3359375 C-52.52382188 -12.98639625 -22.30387376 -15.81917513 0 0 Z " fill="#E8F2D5" transform="translate(2525.05859375,2690.6875)"/>
<path d="M0 0 C60.72 0 121.44 0 184 0 C184 35.43075268 183.90560945 63.11763841 160 90 C159.34773438 90.74636719 158.69546875 91.49273438 158.0234375 92.26171875 C148.18679781 102.81676471 135.52972961 110.22655626 122 115 C120.86175781 115.4125 119.72351562 115.825 118.55078125 116.25 C100.80666943 121.68071648 79.4594437 121.27064527 62 115 C60.41445312 114.43925781 60.41445312 114.43925781 58.796875 113.8671875 C45.85856988 108.85774116 35.71627239 101.70279629 26 92 C25.18402344 91.195625 24.36804687 90.39125 23.52734375 89.5625 C-0.5798703 64.42152892 0 33.27790871 0 0 Z " fill="#FAAB78" transform="translate(2151,3363)"/>
<path d="M0 0 C0.73665894 -0.00067474 1.47331787 -0.00134949 2.2322998 -0.00204468 C22.88318938 0.02801525 43.7902154 1.89093134 59.6875 16.625 C61.66828491 20.2420855 62.07682847 23.29160224 61.125 27.25 C57.08637631 35.32724737 47.77155854 38.60400656 39.76171875 41.44140625 C18.67322007 47.91364084 -6.27733536 48.88645518 -27.875 44.25 C-28.865 44.06695313 -29.855 43.88390625 -30.875 43.6953125 C-40.63903277 41.63571184 -52.95387912 37.50615157 -59.00390625 29.0625 C-60.65941711 25.61784959 -61.00570185 22.92302526 -59.875 19.25 C-55.4337069 11.30950628 -47.25022837 7.169762 -38.79785156 4.62451172 C-25.85222126 1.10461268 -13.39134256 0.01098383 0 0 Z " fill="#FEDBA8" transform="translate(2564.875,2910.75)"/>
<path d="M0 0 C0.73665894 -0.00067474 1.47331787 -0.00134949 2.2322998 -0.00204468 C22.76583241 0.02784442 44.02072295 1.78495598 59.6875 16.6875 C61.64325878 20.17385261 61.67871833 22.30475688 61.125 26.25 C57.38337955 34.22127834 49.66401405 37.84868293 41.8125 40.9375 C14.74572132 49.87328423 -21.67760737 50.49818626 -47.71875 37.87109375 C-52.78315082 35.01864446 -56.86205643 32.27157262 -59.875 27.25 C-60.69426252 23.01714365 -60.80171563 20.91558349 -58.71875 17.171875 C-49.63776478 5.50904104 -34.11365749 2.96401029 -20.3515625 0.66015625 C-13.60716468 -0.11366945 -6.78069362 0.00556165 0 0 Z " fill="#FEDBA8" transform="translate(1919.875,2910.75)"/>
<path d="M0 0 C1.051875 0.5775 2.10375 1.155 3.1875 1.75 C10.37893406 7.50314725 15.09678619 14.29035858 18 23 C18.82831227 35.72341969 18.00909655 45.87925432 9.765625 56.18359375 C2.3117727 63.85182676 -7.69692929 68.06564855 -18.3125 68.25 C-27.85678983 68.12240254 -36.77452695 63.75652034 -43.828125 57.3359375 C-51.41131307 48.94847191 -54.30229976 39.13186343 -53.8828125 27.84765625 C-52.55721861 17.33759038 -47.27903212 8.58635552 -39 2 C-27.23524545 -5.67700085 -12.51146888 -6.91612867 0 0 Z " fill="#F9AB78" transform="translate(2023,2740)"/>
<path d="M0 0 C1.546875 0.8353125 1.546875 0.8353125 3.125 1.6875 C10.71537404 7.79280086 17.09288332 14.94933946 18.21875 24.94140625 C19.09902319 36.89111476 17.43259268 46.61915397 9.76171875 56.18359375 C2.47509107 63.69641387 -7.8259434 68.07130189 -18.25 68.25 C-23.47866935 68.1807461 -27.35585563 67.35779637 -32 65 C-32.8146875 64.5978125 -33.629375 64.195625 -34.46875 63.78125 C-40.94430207 60.27040852 -45.06083602 56.19608551 -49 50 C-49.43441406 49.36964844 -49.86882813 48.73929688 -50.31640625 48.08984375 C-54.63941558 40.51328037 -54.16988033 30.4078315 -53 22 C-49.9999643 11.86119323 -43.31111894 4.29979699 -34.25 -0.9375 C-23.92367575 -6.41639506 -10.08114628 -5.56401727 0 0 Z " fill="#F9AB78" transform="translate(2498,2740)"/>
<path d="M0 0 C6.36718564 4.25213436 12.57214947 10.78790757 14.63671875 18.32421875 C16.02439199 28.54525285 15.93912781 37.27177901 10 46 C9.42378906 46.87398437 9.42378906 46.87398437 8.8359375 47.765625 C4.29258268 53.88524578 -2.60714886 57.64464396 -10 59 C-20.49402496 59.82306078 -28.86091391 58.44182378 -37.1484375 51.72265625 C-44.46172862 44.91851831 -47.89339933 37.08602148 -48.5 27.125 C-48.25830501 19.82811327 -45.11130882 12.48980346 -40.8125 6.625 C-29.00209457 -4.39804507 -14.60222446 -7.5008387 0 0 Z " fill="#FEDBA8" transform="translate(1922,1238)"/>
<path d="M0 0 C6.13655843 5.01657818 11.65024579 11.45692075 12.7421875 19.4921875 C13.53236784 30.10133007 12.69372037 38.77213472 5.9921875 47.3046875 C0.55790819 53.12320879 -6.39047279 57.02194264 -14.37109375 57.79296875 C-25.22681146 57.83273328 -33.18979781 56.05064337 -41.2578125 48.4921875 C-48.60488012 40.3305891 -49.8993451 32.43628422 -49.64453125 21.7109375 C-49.30369527 16.17881272 -47.39547929 12.01626519 -44.2578125 7.4921875 C-43.6803125 6.5846875 -43.1028125 5.6771875 -42.5078125 4.7421875 C-30.76790298 -6.99772202 -14.04743997 -9.38116233 0 0 Z " fill="#FEDBA8" transform="translate(2598.2578125,1239.5078125)"/>
</svg>
